<?xml version="1.0" encoding="utf-8"?>
<!-- Generator: Adobe Illustrator 24.0.2, SVG Export Plug-In . SVG Version: 6.00 Build 0)  -->
<svg version="1.1" id="Layer_1" xmlns="http://www.w3.org/2000/svg" xmlns:xlink="http://www.w3.org/1999/xlink" x="0px" y="0px"
	 viewBox="0 0 101 101" style="enable-background:new 0 0 101 101;" xml:space="preserve">
<style type="text/css">
	.st0{clip-path:url(#SVGID_2_);}
	.st1{fill:#FFFFFF;}
</style>
<g>
	<defs>
		<rect id="SVGID_1_" x="0.5" y="0.6" width="100" height="100"/>
	</defs>
	<clipPath id="SVGID_2_">
		<use xlink:href="#SVGID_1_"  style="overflow:visible;"/>
	</clipPath>
	<g class="st0">
		<path class="st1" d="M99.6,77.9L88.9,67.2c-0.6,1.2-1.4,2.2-2.4,3.1c-1,0.8-2.2,1.4-3.5,1.7l-1.5,0.3l-0.3,1.5
			c-0.6,2.5-3.4,7.2-9.3,6.7l-1.5-0.1l-0.8,1.3c-0.7,1.1-1.5,2-2.6,2.7c-1,0.7-2.2,1.2-3.4,1.4l14.1,14.1c0.4,0.4,0.8,0.6,1.3,0.7
			c0.5,0.1,1,0.1,1.5,0c0.5-0.1,0.9-0.4,1.3-0.7c0.4-0.3,0.6-0.8,0.8-1.2l4-11.9l11.9-4c0.5-0.2,0.9-0.4,1.2-0.8
			c0.3-0.4,0.6-0.8,0.7-1.3c0.1-0.5,0.1-1,0-1.5C100.3,78.7,100,78.2,99.6,77.9L99.6,77.9z M31.4,81.6l-0.8-1.3l-1.5,0.1
			c-5.9,0.5-8.7-4.2-9.3-6.7l-0.3-1.5L18,71.9c-1.3-0.3-2.5-0.9-3.5-1.7c-1-0.8-1.8-1.9-2.4-3.1L1.4,77.9c-0.4,0.4-0.6,0.8-0.7,1.3
			c-0.1,0.5-0.1,1,0,1.5c0.1,0.5,0.4,0.9,0.7,1.3c0.3,0.4,0.8,0.6,1.2,0.8l11.9,4l4,11.9c0.2,0.5,0.4,0.9,0.8,1.2
			c0.4,0.3,0.8,0.6,1.3,0.7c0.5,0.1,1,0.1,1.5,0c0.5-0.1,0.9-0.4,1.3-0.7l14.1-14.1c-1.2-0.2-2.4-0.7-3.4-1.4
			C32.9,83.6,32,82.7,31.4,81.6z M64.6,78.6l2.7-4.4l5.1,0.4c1.4,0.1,2.8-0.8,3.1-2.2l1.2-5l5-1.2c0.7-0.2,1.3-0.6,1.7-1.1
			c0.4-0.6,0.6-1.3,0.6-2L83.5,58l4.4-2.7c0.6-0.4,1-0.9,1.3-1.6c0.2-0.7,0.2-1.4-0.1-2L87,47l3.3-3.9c0.5-0.5,0.7-1.2,0.7-1.9
			c0-0.7-0.3-1.4-0.7-1.9L87,35.4l2-4.7c0.3-0.6,0.3-1.4,0.1-2c-0.2-0.7-0.7-1.2-1.3-1.6l-4.4-2.7l0.4-5.1c0.1-0.7-0.1-1.4-0.6-2
			c-0.4-0.6-1-1-1.7-1.1l-5-1.2l-1.2-5c-0.2-0.7-0.6-1.3-1.1-1.7c-0.6-0.4-1.3-0.6-2-0.6l-5.1,0.4l-2.7-4.4c-0.4-0.6-0.9-1-1.6-1.3
			c-0.7-0.2-1.4-0.2-2,0.1l-4.7,2l-3.9-3.3c-0.5-0.5-1.2-0.7-1.9-0.7s-1.4,0.3-1.9,0.7l-3.9,3.3l-4.7-2c-0.6-0.3-1.4-0.3-2-0.1
			c-0.7,0.2-1.2,0.7-1.6,1.3l-2.7,4.4l-5.1-0.4c-0.7-0.1-1.4,0.1-2,0.6c-0.6,0.4-1,1-1.1,1.7l-1.2,5l-5,1.2
			c-0.7,0.2-1.3,0.6-1.7,1.1c-0.4,0.6-0.6,1.3-0.6,2l0.4,5.1l-4.4,2.7c-0.6,0.4-1,0.9-1.3,1.6c-0.2,0.7-0.2,1.4,0.1,2l2,4.7
			l-3.3,3.9c-0.5,0.5-0.7,1.2-0.7,1.9c0,0.7,0.3,1.4,0.7,1.9L14,47l-2,4.7c-0.3,0.6-0.3,1.4-0.1,2c0.2,0.7,0.7,1.2,1.3,1.6l4.4,2.7
			l-0.4,5.1c-0.1,0.7,0.1,1.4,0.6,2c0.4,0.6,1,1,1.7,1.1l5,1.2l1.2,5c0.2,0.7,0.6,1.3,1.1,1.7c0.6,0.4,1.3,0.6,2,0.5l5.1-0.4
			l2.7,4.4c0.4,0.6,0.9,1,1.6,1.3c0.7,0.2,1.4,0.2,2-0.1l4.7-2l3.9,3.3c0.5,0.5,1.2,0.7,1.9,0.7s1.4-0.3,1.9-0.7l3.9-3.3l4.7,2
			c0.6,0.3,1.4,0.3,2,0.1C63.7,79.6,64.3,79.2,64.6,78.6L64.6,78.6z M49.4,62.1c-0.5,0.5-1.3,0.9-2.1,0.9c-0.8,0-1.5-0.3-2.1-0.9
			L28,44.9c-0.5-0.5-0.9-1.3-0.9-2.1c0-0.8,0.3-1.5,0.9-2.1l8.9-8.9c0.3-0.3,0.6-0.5,1-0.6c0.4-0.1,0.7-0.2,1.1-0.2s0.8,0.1,1.1,0.2
			c0.4,0.1,0.7,0.4,1,0.6l6.3,6.3L61.5,24c0.5-0.5,1.3-0.9,2.1-0.9c0.8,0,1.5,0.3,2.1,0.9l8.9,8.9c0.5,0.5,0.9,1.3,0.9,2.1
			c0,0.8-0.3,1.5-0.9,2.1L49.4,62.1z"/>
		<path class="st1" d="M49.4,44.4c-0.5,0.5-1.3,0.9-2.1,0.9c-0.8,0-1.5-0.3-2.1-0.9L39,38.1l-4.7,4.7l13.1,13.1l21-21l-4.7-4.7
			L49.4,44.4z"/>
	</g>
</g>
</svg>
