<?xml version="1.0" encoding="utf-8"?>
<!-- Generator: Adobe Illustrator 24.0.2, SVG Export Plug-In . SVG Version: 6.00 Build 0)  -->
<svg version="1.1" id="Layer_1" xmlns:svgjs="http://svgjs.com/svgjs"
	 xmlns="http://www.w3.org/2000/svg" xmlns:xlink="http://www.w3.org/1999/xlink" x="0px" y="0px" viewBox="0 0 512 512"
	 style="enable-background:new 0 0 512 512;" xml:space="preserve">
<style type="text/css">
	.st0{display:none;}
	.st1{display:inline;}
	.st2{fill:#F42C7D;}
	.st3{clip-path:url(#SVGID_2_);fill:#FFFFFF;}
	.st4{display:inline;fill:#EEEEEE;}
	.st5{display:inline;fill:#FAD6FF;}
	.st6{display:inline;fill:#D8F2F1;}
	.st7{display:inline;fill:#B8E0DD;}
	.st8{display:inline;fill:#91DFAB;}
	.st9{display:inline;fill:#84CE9B;}
	.st10{fill:#F9F9F9;}
</style>
<g class="st0">
	<g id="outline" class="st1">
		<path class="st2" d="M452,40H60c-19.9,0-36,16.1-36,36v296c0,19.9,16.1,36,36,36h136.9l-3.6,10.9l-7.8,5.2
			c-10.9,7.3-17.5,19.5-17.5,32.6v7.3c0,4.4,3.6,8,8,8h161.4c4.4,0,8-3.6,8-8v-7.3c0-13.1-6.5-25.4-17.5-32.6l-8-5.3l-4.2-10.7H452
			c19.9,0,36-16.1,36-36V76C488,56.1,471.9,40,452,40z M319,437.4c6.3,4.2,10.1,11.1,10.3,18.6H184c0.2-7.5,4.1-14.5,10.3-18.6
			l10.1-6.7c1.5-1,2.6-2.4,3.2-4.1l6.2-18.5H224c0,17.7,14.3,32,32,32c16.2,0,29.8-12,31.8-28.1c0.2-1.3,0.2-2.7,0.2-4h10.5
			l7.4,18.9c0.6,1.5,1.7,2.8,3,3.7L319,437.4z M240,408h32c0,0.7,0,1.4-0.1,2c-1.1,8.8-9.1,15-17.9,13.9
			C246,422.9,240,416.1,240,408z M472,372c0,11-9,20-20,20H60c-11,0-20-9-20-20v-12h432V372z M472,344H40V76c0-11,9-20,20-20h392
			c11,0,20,9,20,20V344z"/>
		<path class="st2" d="M212,104h-7.1l-13.8-27.6c-1.4-2.7-4.1-4.4-7.2-4.4h-64c-2.5,0-4.9,1.2-6.4,3.2L92,104H82
			c-14.4,0-26,11.6-26,26v22c0,4.4,3.6,8,8,8h17.4c4.4,12.5,18.1,19,30.6,14.6c6.8-2.4,12.2-7.8,14.6-14.6h34.8
			c4.4,12.5,18.1,19,30.6,14.6c6.8-2.4,12.2-7.8,14.6-14.6H224c4.4,0,8-3.6,8-8v-28C232,113,223,104,212,104z M160,88h19.1l8,16H160
			V88z M124,88h20v16h-32L124,88z M104,160c-4.4,0-8-3.6-8-8s3.6-8,8-8s8,3.6,8,8C112,156.4,108.4,160,104,160z M184,160
			c-4.4,0-8-3.6-8-8s3.6-8,8-8s8,3.6,8,8C192,156.4,188.4,160,184,160z M216,144h-9.4c-4.4-12.5-18.1-19-30.6-14.6
			c-6.8,2.4-12.2,7.8-14.6,14.6h-34.8c-4.4-12.5-18.1-19-30.6-14.6c-6.8,2.4-12.2,7.8-14.6,14.6H72v-14c0-5.5,4.5-10,10-10h130
			c2.2,0,4,1.8,4,4V144z"/>
		<path class="st2" d="M451.8,97.2L432,109.6V104c0-4.4-3.6-8-8-8h-64c-4.4,0-8,3.6-8,8v64c0,4.4,3.6,8,8,8h64c4.4,0,8-3.6,8-8
			v-39.6l28.2-17.7c3.7-2.3,4.9-7.3,2.5-11C460.4,96,455.5,94.9,451.8,97.2L451.8,97.2z M416,119.6l-20.8,13l-4.1-8.1
			c-2-3.9-6.8-5.5-10.8-3.5c-3.9,2-5.5,6.7-3.5,10.6l8,16c2,4,6.8,5.6,10.7,3.6c0.2-0.1,0.4-0.2,0.7-0.4l19.8-12.4V160h-48v-48h48
			V119.6z"/>
		<path class="st2" d="M328,112h-72c-4.4,0-8,3.6-8,8s3.6,8,8,8h72c4.4,0,8-3.6,8-8S332.4,112,328,112z"/>
		<path class="st2" d="M256,160h24c4.4,0,8-3.6,8-8s-3.6-8-8-8h-24c-4.4,0-8,3.6-8,8S251.6,160,256,160z"/>
		<path class="st2" d="M328,144h-24c-4.4,0-8,3.6-8,8s3.6,8,8,8h24c4.4,0,8-3.6,8-8S332.4,144,328,144z"/>
		<path class="st2" d="M296,264h-40c-4.4,0-8,3.6-8,8s3.6,8,8,8h40c4.4,0,8-3.6,8-8S300.4,264,296,264z"/>
		<path class="st2" d="M328,264h-8c-4.4,0-8,3.6-8,8s3.6,8,8,8h8c4.4,0,8-3.6,8-8S332.4,264,328,264z"/>
		<path class="st2" d="M328,232h-72c-4.4,0-8,3.6-8,8s3.6,8,8,8h72c4.4,0,8-3.6,8-8S332.4,232,328,232z"/>
		<circle class="st2" cx="256" cy="320" r="8"/>
		<circle class="st2" cx="288" cy="320" r="8"/>
		<circle class="st2" cx="224" cy="320" r="8"/>
		<path class="st2" d="M206.4,195.2c-1.5-2-3.9-3.2-6.4-3.2h-72c-2.5,0-4.9,1.2-6.4,3.2L100,224H82c-14.4,0-26,11.6-26,26v22
			c0,4.4,3.6,8,8,8h17.4c4.4,12.5,18.1,19,30.6,14.6c6.8-2.4,12.2-7.8,14.6-14.6h34.8c4.4,12.5,18.1,19,30.6,14.6
			c6.8-2.4,12.2-7.8,14.6-14.6h7.4c9.9,0,18-8.1,18-18v-30c0-1.7-0.6-3.4-1.6-4.8L206.4,195.2z M208,224h-40v-16h28L208,224z
			 M132,208h20v16h-32L132,208z M104,280c-4.4,0-8-3.6-8-8s3.6-8,8-8s8,3.6,8,8C112,276.4,108.4,280,104,280z M184,280
			c-4.4,0-8-3.6-8-8s3.6-8,8-8s8,3.6,8,8C192,276.4,188.4,280,184,280z M216,262c0,1.1-0.9,2-2,2h-7.4c-4.4-12.5-18.1-19-30.6-14.6
			c-6.8,2.4-12.2,7.8-14.6,14.6h-34.8c-4.4-12.5-18.1-19-30.6-14.6c-6.8,2.4-12.2,7.8-14.6,14.6H72v-14c0-5.5,4.5-10,10-10h134V262z
			"/>
		<path class="st2" d="M424,208h-64c-4.4,0-8,3.6-8,8v64c0,4.4,3.6,8,8,8h64c4.4,0,8-3.6,8-8v-64C432,211.6,428.4,208,424,208z
			 M368,235.3l12.7,12.7L368,260.7V235.3z M379.3,224h25.4L392,236.7L379.3,224z M392,259.3l12.7,12.7h-25.4L392,259.3z M403.3,248
			l12.7-12.7v25.4L403.3,248z"/>
	</g>
</g>
<g class="st0">
	<g class="st1">
		<defs>
			<rect id="SVGID_1_" x="-1636.9" y="-2048" width="3999.9" height="4000"/>
		</defs>
		<clipPath id="SVGID_2_">
			<use xlink:href="#SVGID_1_"  style="overflow:visible;"/>
		</clipPath>
		<polygon class="st3" points="2363,1952 -1637,1952 -1637,-2048 2363,-2048 2363,1952 		"/>
	</g>
	<path class="st4" d="M1434.7,1412.2c0-25-479.8-45.2-1071.7-45.2c-591.8,0-1071.6,20.2-1071.6,45.2c0,25,479.8,45.2,1071.6,45.2
		C954.9,1457.4,1434.7,1437.2,1434.7,1412.2L1434.7,1412.2z"/>
	<path class="st5" d="M1577.9-48c0-671-543.9-1214.9-1214.9-1214.9S-851.9-719-851.9-48c0,671,543.9,1214.9,1214.9,1214.9
		S1577.9,623,1577.9-48L1577.9-48z"/>
	<path class="st6" d="M245.8,503.6v-93.8h-93.8v93.8H245.8L245.8,503.6z M386.4,503.6v-93.8h-93.7v93.8H386.4L386.4,503.6z
		 M527.1,503.6v-93.8h-93.8v93.8H527.1L527.1,503.6z M667.7,503.6v-93.8h-93.8v93.8H667.7L667.7,503.6z M808.3,503.6v-93.8h-93.8
		v93.8H808.3L808.3,503.6z M1464.6-293.3V737.9h-187.5l10.9,256.2L994.1,731.7l-1029.5,6.3V-58.9v-234.4h796.9H1464.6L1464.6-293.3z
		"/>
	<polygon class="st7" points="23.2,4.6 23.2,-229.8 820,-229.8 1464.6,-229.8 1464.6,-293.3 761.4,-293.3 -35.4,-293.3 -35.4,-58.9 
		-35.4,737.9 23.2,737.6 23.2,4.6 	"/>
	<polygon class="st8" points="761.4,-1090.2 761.4,-293.3 -35.4,-293.3 -35.4,-58.9 -316.7,-58.9 -597.9,222.3 -551.1,-58.9 
		-738.6,-58.9 -738.6,-1090.2 761.4,-1090.2 	"/>
	<polygon class="st9" points="-675.3,-1019.9 761.4,-1019.9 761.4,-1090.2 -738.6,-1090.2 -738.6,-58.9 -675.3,-58.9 
		-675.3,-1019.9 	"/>
	<polygon class="st1" points="808.3,409.8 808.3,503.6 714.6,503.6 714.6,409.8 808.3,409.8 	"/>
	<polygon class="st1" points="667.7,409.8 667.7,503.6 573.9,503.6 573.9,409.8 667.7,409.8 	"/>
	<polygon class="st1" points="527.1,409.8 527.1,503.6 433.3,503.6 433.3,409.8 527.1,409.8 	"/>
	<polygon class="st1" points="386.4,409.8 386.4,503.6 292.7,503.6 292.7,409.8 386.4,409.8 	"/>
	<polygon class="st1" points="245.8,409.8 245.8,503.6 152.1,503.6 152.1,409.8 245.8,409.8 	"/>
	<path class="st1" d="M-597.9,245.8c-3.6,0-7.3-0.9-10.7-2.6c-9.1-4.7-14.1-14.6-12.4-24.7l42.3-254h-159.8
		c-12.9,0-23.4-10.5-23.4-23.4v-1031.3c0-12.9,10.5-23.4,23.4-23.4h1500c12.9,0,23.4,10.5,23.4,23.4v796.9
		c0,12.9-10.5,23.4-23.4,23.4c-12.9,0-23.4-10.5-23.4-23.4v-773.4H-715.1v984.4h164.1c6.9,0,13.4,3,17.9,8.3
		c4.5,5.3,6.4,12.2,5.2,19L-562.8,154l229.5-229.5c4.4-4.4,10.4-6.9,16.6-6.9h281.3c12.9,0,23.4,10.5,23.4,23.4
		c0,12.9-10.5,23.4-23.4,23.4H-307l-274.4,274.4C-585.9,243.4-591.9,245.8-597.9,245.8L-597.9,245.8z"/>
	<path class="st1" d="M994.1,708.2c5.8,0,11.3,2.1,15.6,6l252.5,225.5l-8.6-200.8c-0.3-6.4,2.1-12.6,6.5-17.2
		c4.4-4.6,10.5-7.2,16.9-7.2h164.1v-984.4H-12v984.2l1005.9-6.1C994,708.2,994,708.2,994.1,708.2L994.1,708.2z M1288,1017.6
		c-5.6,0-11.2-2-15.6-6L985.2,755.2l-1020.5,6.2c-6.3,0-12.2-2.4-16.7-6.8c-4.4-4.4-6.9-10.4-6.9-16.6V-293.3
		c0-12.9,10.5-23.4,23.4-23.4h1500c13,0,23.4,10.5,23.4,23.4V737.9c0,12.9-10.5,23.4-23.4,23.4h-163l9.8,229.7
		c0.1,1,0.2,2.1,0.2,3.1c0,12.9-10.5,23.4-23.4,23.4C1288.1,1017.6,1288,1017.6,1288,1017.6L1288,1017.6z"/>
	<path class="st1" d="M245.8-738.6h-796.9c-12.9,0-23.4-10.5-23.4-23.4c0-12.9,10.5-23.4,23.4-23.4h796.9
		c12.9,0,23.4,10.5,23.4,23.4C269.3-749.1,258.8-738.6,245.8-738.6L245.8-738.6z"/>
	<path class="st1" d="M573.9-551.1h-1125c-12.9,0-23.4-10.5-23.4-23.4c0-12.9,10.5-23.4,23.4-23.4h1125c12.9,0,23.4,10.5,23.4,23.4
		C597.4-561.6,586.9-551.1,573.9-551.1L573.9-551.1z"/>
	<path class="st1" d="M948.9,105.1H152.1c-12.9,0-23.4-10.5-23.4-23.4c0-12.9,10.5-23.4,23.4-23.4h796.9c12.9,0,23.4,10.5,23.4,23.4
		C972.4,94.7,961.9,105.1,948.9,105.1L948.9,105.1z"/>
	<path class="st1" d="M1277.1,292.6h-1125c-12.9,0-23.4-10.5-23.4-23.4c0-12.9,10.5-23.4,23.4-23.4h1125c12.9,0,23.4,10.5,23.4,23.4
		C1300.5,282.2,1290,292.6,1277.1,292.6L1277.1,292.6z"/>
</g>
<g>
	<path class="st10" d="M490.3,215.6v220.6h-40.1l2.3,54.8l-62.9-56.1l-220.2,1.3V265.8v-50.1h170.4H490.3z M349.9,386.1V366h-20.1
		v20.1H349.9z M319.8,386.1V366h-20.1v20.1H319.8z M289.8,386.1V366h-20.1v20.1H289.8z M259.7,386.1V366h-20.1v20.1H259.7z
		 M229.6,386.1V366h-20.1v20.1H229.6z"/>
	<polygon class="st10" points="182,279.3 182,229.2 352.4,229.2 490.3,229.2 490.3,215.6 339.9,215.6 169.5,215.6 169.5,265.8 
		169.5,436.2 182,436.1 	"/>
	<polygon class="st10" points="339.9,45.2 339.9,215.6 169.5,215.6 169.5,265.8 109.3,265.8 49.2,325.9 59.2,265.8 19.1,265.8 
		19.1,45.2 	"/>
	<polygon class="st10" points="32.6,60.2 339.9,60.2 339.9,45.2 19.1,45.2 19.1,265.8 32.6,265.8 	"/>
	<rect x="329.9" y="366" class="st10" width="20.1" height="20.1"/>
	<rect x="299.8" y="366" class="st10" width="20.1" height="20.1"/>
	<rect x="269.7" y="366" class="st10" width="20.1" height="20.1"/>
	<rect x="239.6" y="366" class="st10" width="20.1" height="20.1"/>
	<rect x="209.6" y="366" class="st10" width="20.1" height="20.1"/>
	<path class="st10" d="M49.2,330.9c-0.8,0-1.6-0.2-2.3-0.6c-1.9-1-3-3.1-2.7-5.3l9.1-54.3H19.1c-2.8,0-5-2.2-5-5V45.2
		c0-2.8,2.2-5,5-5h320.8c2.8,0,5,2.2,5,5v170.4c0,2.8-2.2,5-5,5s-5-2.2-5-5V50.2H24.1v210.5h35.1c1.5,0,2.9,0.6,3.8,1.8
		c1,1.1,1.4,2.6,1.1,4.1l-7.5,44.7l49.1-49.1c0.9-0.9,2.2-1.5,3.5-1.5h60.2c2.8,0,5,2.2,5,5c0,2.8-2.2,5-5,5h-58.1l-58.7,58.7
		C51.8,330.4,50.5,330.9,49.2,330.9z"/>
	<path class="st10" d="M452.5,496c-1.2,0-2.4-0.4-3.3-1.3l-61.4-54.9l-218.3,1.3c-1.4,0-2.6-0.5-3.6-1.5c-0.9-0.9-1.5-2.2-1.5-3.6
		V215.6c0-2.8,2.2-5,5-5h320.8c2.8,0,5,2.2,5,5v220.6c0,2.8-2.2,5-5,5h-34.9l2.1,49.1c0,0.2,0,0.4,0,0.7
		C457.5,493.8,455.3,496,452.5,496C452.5,496,452.5,496,452.5,496z M389.7,429.8c1.2,0,2.4,0.5,3.3,1.3l54,48.2l-1.8-42.9
		c-0.1-1.4,0.4-2.7,1.4-3.7c0.9-1,2.3-1.5,3.6-1.5h35.1V220.7H174.5v210.5L389.7,429.8C389.6,429.8,389.6,429.8,389.7,429.8z"/>
	<path class="st10" d="M229.6,120.4H59.2c-2.8,0-5-2.2-5-5c0-2.8,2.2-5,5-5h170.4c2.8,0,5,2.2,5,5
		C234.6,118.2,232.4,120.4,229.6,120.4z"/>
	<path class="st10" d="M299.8,160.5H59.2c-2.8,0-5-2.2-5-5c0-2.8,2.2-5,5-5h240.6c2.8,0,5,2.2,5,5
		C304.8,158.3,302.6,160.5,299.8,160.5z"/>
	<path class="st10" d="M380,300.9H209.6c-2.8,0-5-2.2-5-5c0-2.8,2.2-5,5-5H380c2.8,0,5,2.2,5,5C385,298.6,382.8,300.9,380,300.9z"/>
	<path class="st10" d="M450.2,341H209.6c-2.8,0-5-2.2-5-5c0-2.8,2.2-5,5-5h240.6c2.8,0,5,2.2,5,5C455.2,338.7,452.9,341,450.2,341z"
		/>
</g>
</svg>
