<svg xmlns="http://www.w3.org/2000/svg" fill="none" viewBox="0 0 60 61" height="61" width="60">
<g id="hugeicons:customer-service-01">
<g id="Group">
<path stroke-linejoin="round" stroke-linecap="round" stroke-width="3.5" stroke="#1A99DE" d="M42.499 30.322C42.499 29.457 42.499 29.0245 42.629 28.6395C43.0065 27.5195 44.004 27.087 45.004 26.632C46.124 26.1195 46.684 25.8645 47.2415 25.8195C47.8715 25.7695 48.504 25.9045 49.044 26.207C49.759 26.607 50.259 27.372 50.769 27.992C53.1265 30.857 54.3065 32.2895 54.7365 33.867C55.0865 35.142 55.0865 36.477 54.7365 37.7495C54.109 40.0545 52.1215 41.9845 50.649 43.7745C49.8965 44.687 49.519 45.1445 49.044 45.412C48.4948 45.7166 47.8675 45.8515 47.2415 45.7995C46.684 45.7545 46.124 45.4995 45.0015 44.987C44.0015 44.532 43.0065 44.0995 42.629 42.9795C42.499 42.5945 42.499 42.162 42.499 41.2995V30.322ZM17.499 30.322C17.499 29.232 17.469 28.2545 16.589 27.4895C16.269 27.212 15.844 27.0195 14.9965 26.632C13.874 26.122 13.314 25.8645 12.7565 25.8195C11.089 25.6845 10.1915 26.8245 9.23154 27.9945C6.87154 30.857 5.69154 32.2895 5.25904 33.8695C4.91105 35.1403 4.91105 36.4812 5.25904 37.752C5.88904 40.0545 7.87904 41.987 9.34904 43.7745C10.2765 44.8995 11.164 45.927 12.7565 45.7995C13.314 45.7545 13.874 45.4995 14.9965 44.987C15.8465 44.602 16.269 44.407 16.589 44.1295C17.469 43.3645 17.499 42.387 17.499 41.2995V30.322Z" id="Vector"></path>
<path stroke-linejoin="round" stroke-linecap="round" stroke-width="3.5" stroke="#1A99DE" d="M50 27.0586V23.3086C50 13.6436 41.045 5.80859 30 5.80859C18.955 5.80859 10 13.6436 10 23.3086V27.0586M50 44.5586C50 55.8086 40 55.8086 30 55.8086" id="Vector_2"></path>
</g>
</g>
</svg>
