<?xml version="1.0" encoding="utf-8"?>
<!-- Generator: Adobe Illustrator 24.0.2, SVG Export Plug-In . SVG Version: 6.00 Build 0)  -->
<svg version="1.1" id="Layer_1" xmlns="http://www.w3.org/2000/svg" xmlns:xlink="http://www.w3.org/1999/xlink" x="0px" y="0px"
	 viewBox="0 0 101 101" style="enable-background:new 0 0 101 101;" xml:space="preserve">
<style type="text/css">
	.st0{clip-path:url(#SVGID_2_);}
	.st1{fill:#FFFFFF;}
</style>
<g>
	<defs>
		<rect id="SVGID_1_" x="0.5" y="0.6" width="100" height="100"/>
	</defs>
	<clipPath id="SVGID_2_">
		<use xlink:href="#SVGID_1_"  style="overflow:visible;"/>
	</clipPath>
	<g class="st0">
		<path class="st1" d="M63.6,52.5l2.1,5.2H55.3c3.8-6.8,5.8-14.5,5.9-22.2l7.2-2.1v2.3c0,0.4,0,0.8,0,1.1c-3.2,1.1-5.3,4.1-5.3,7.5
			v4.9C63,50.3,63.2,51.4,63.6,52.5z M38,64.8c0,1.8,0.7,3.6,2,4.9c-0.7,0.5-1.3,1-2,1.4l-3.5,2.3l-3.5-2.3
			C23,66.1,17,58.5,13.8,49.7l43.8-13.1c-0.2,7.5-2.5,14.8-6.4,21.2h-6C41.2,57.7,38,60.9,38,64.8z M1.5,46.5c0-0.1,0-0.2,0-0.3
			l7.1-2.1c0.2,1.1,0.5,2.1,0.8,3.2l-7.2,2.2C1.9,48.5,1.6,47.5,1.5,46.5z M0.6,39.3l7.1-2.1c0.1,1.1,0.1,2.2,0.3,3.3l-7,2.1
			c0-0.2,0-0.3,0-0.5C0.8,41.3,0.7,40.3,0.6,39.3z M57.6,18.5L11.2,32.4V19.7l23.3-8.3L57.6,18V18.5z M57.6,22.2v3.4L11.5,39.5
			c-0.1-1.1-0.2-2.2-0.2-3.3L57.6,22.2z M68.4,26.2v3.4l-7.1,2.1v-3.4L68.4,26.2z M68.4,22.4l-7.1,2.1v-3.4l7.1-2.1V22.4z M12,43.1
			L41,34.4l16.6-5v3.4L12.7,46.3C12.4,45.2,12.2,44.2,12,43.1L12,43.1z M0.5,10.8L34.4,0.6l33.9,10.2v4.5l-7.1,2.1v-0.8
			c0-0.4-0.1-0.8-0.4-1.1c-0.2-0.3-0.6-0.5-0.9-0.6l-25-7.1c-0.4-0.1-0.7-0.1-1.1,0l-25,8.9c-0.3,0.1-0.6,0.4-0.9,0.7
			c-0.2,0.3-0.3,0.7-0.3,1v15.1l-7.1,2.1V10.8z M34.4,91.4c-7.6-3.9-14.3-9.3-19.8-16C9.2,68.8,5.2,61.2,2.9,53l7.4-2.2
			c3.4,9.7,10,17.9,18.6,23.5l4.5,2.9c0.3,0.2,0.6,0.3,1,0.3c0.3,0,0.7-0.1,1-0.3l4.5-2.9l0,0c-0.3,1.4-0.2,2.9,0.4,4.3
			c0.6,1.4,1.6,2.5,2.9,3.2c-1.1,1.3-1.7,2.9-1.7,4.6c0,0.2,0,0.5,0,0.7C39.3,88.6,36.9,90.1,34.4,91.4z M80.3,100.6H50.5
			c-2,0-3.6-1.6-3.6-3.6c0-1.9,1.4-3.4,3.3-3.5c0.5,0,0.9-0.3,1.2-0.6c0.3-0.4,0.5-0.8,0.4-1.3c0-0.5-0.2-0.9-0.5-1.2
			s-0.8-0.5-1.2-0.5h-1.3c-2,0-3.6-1.6-3.6-3.6c0-2,1.6-3.6,3.6-3.6c0.5,0,0.9-0.2,1.3-0.5c0.3-0.3,0.5-0.8,0.5-1.3
			c0-0.5-0.2-0.9-0.5-1.3s-0.8-0.5-1.3-0.5h-1.8c-2,0-3.6-1.6-3.6-3.6c0-2,1.6-3.6,3.6-3.6c0.5,0,0.9-0.2,1.3-0.5
			c0.3-0.3,0.5-0.8,0.5-1.3c0-0.5-0.2-0.9-0.5-1.3c-0.3-0.3-0.8-0.5-1.3-0.5h-1.8c-2,0-3.6-1.6-3.6-3.6c0-2,1.6-3.6,3.6-3.6h23.2
			c0.3,0,0.6-0.1,0.8-0.2c0.3-0.1,0.5-0.3,0.6-0.6c0.2-0.2,0.3-0.5,0.3-0.8c0-0.3,0-0.6-0.1-0.9L67,51.2c-0.3-0.6-0.4-1.3-0.4-2
			v-4.9c0-2.5,2-4.5,4.5-4.5c2.5,0,4.5,2,4.5,4.5v6.3c0,0.2,0,0.5,0.1,0.7l3.6,8.9c0.1,0.2,0.2,0.5,0.4,0.6c0.2,0.2,0.4,0.3,0.7,0.4
			l9.5,3.2v29.9L80.3,100.6z M100.5,93.4h-7.1V64.8h7.1V93.4z M90.9,19.9l-2.4,2.6c0.8,0.8,1.6,1.6,2.3,2.4l2.7-2.3
			C92.7,21.7,91.8,20.8,90.9,19.9L90.9,19.9z M100.5,42.1c0-0.7,0-1.4-0.1-2.1l-3.6,0.2c0,0.6,0.1,1.2,0.1,1.8c0,0.5,0,1,0,1.5
			l3.6,0.2C100.5,43.2,100.5,42.7,100.5,42.1L100.5,42.1z M88,17.5c-1-0.7-2.1-1.4-3.2-2L83,18.6c1,0.5,1.9,1.1,2.8,1.8L88,17.5z
			 M100,47.6l-3.5-0.6c-0.2,1.1-0.5,2.2-0.8,3.2l3.4,1.1C99.5,50,99.8,48.8,100,47.6z M81.3,13.9c-1.2-0.5-2.4-0.9-3.6-1.2l-0.9,3.5
			c1.1,0.3,2.1,0.6,3.2,1L81.3,13.9z M93.6,55.1l3.1,1.7c0.4-0.7,0.7-1.3,1-2l-3.2-1.5C94.2,53.9,93.9,54.5,93.6,55.1z M92.7,27.7
			c0.6,0.9,1.1,1.9,1.6,2.9l3.2-1.5c-0.5-1.1-1.2-2.2-1.8-3.3L92.7,27.7z M95.6,33.7c0.3,1.1,0.6,2.1,0.8,3.2l3.5-0.7
			c-0.2-1.2-0.6-2.5-1-3.7L95.6,33.7z M77.3,31c4.3,1.7,7.2,5.9,7.2,10.6H88c0-6.1-3.7-11.6-9.4-13.9L78,27.5l-1.3,3.3L77.3,31z"/>
	</g>
</g>
</svg>
