<?xml version="1.0" encoding="utf-8"?>
<!-- Generator: Adobe Illustrator 24.0.2, SVG Export Plug-In . SVG Version: 6.00 Build 0)  -->
<svg version="1.1" id="Layer_1" xmlns="http://www.w3.org/2000/svg" xmlns:xlink="http://www.w3.org/1999/xlink" x="0px" y="0px"
	 viewBox="0 0 101 101" style="enable-background:new 0 0 101 101;" xml:space="preserve">
<style type="text/css">
	.st0{fill:#FCFCFC;}
	.st1{fill:#FFFFFF;}
</style>
<path class="st0" d="M51.3,28.6c2.8,0,5.1-2.9,5.1-6.4c0-3.5-2.3-6.4-5.1-6.4c-2.8,0-5.1,2.9-5.1,6.4S48.5,28.6,51.3,28.6z"/>
<path class="st1" d="M32.6,43.7L32.6,43.7c-0.2,3.2,1.6,6.2,4.5,7.6l0,0c2.3,1.1,4.1,2.9,5.3,5.1l0,0c0.8,1.4,1.9,2.6,3.3,3.4
	c1.4,0.8,3,1.1,4.6,1l0.1,0c2.5-0.1,5,0.5,7.2,1.9c1.4,0.9,3,1.3,4.6,1.3c1.6,0,3.2-0.5,4.6-1.3c2.1-1.4,4.6-2,7.2-1.9l0.1,0
	c1.6,0.1,3.2-0.3,4.6-1c1.4-0.8,2.6-1.9,3.3-3.4l0,0c1.2-2.2,3-4,5.3-5.1l0,0c2.9-1.4,4.7-4.4,4.6-7.5l0-0.1c-0.1-2.5,0.6-4.9,2-7
	c0.9-1.3,1.4-2.8,1.4-4.4c0-1.6-0.5-3.1-1.4-4.4c-1.4-2.1-2.1-4.5-2-7l0-0.1c0.2-3.1-1.6-6.1-4.6-7.5l0,0c-2.3-1.1-4.1-2.9-5.3-5.1
	l0,0c-1.5-2.8-4.6-4.6-7.9-4.4l-0.1,0C71.5,4,69,3.3,66.9,2c-1.4-0.9-3-1.3-4.6-1.3c-1.6,0-3.2,0.5-4.6,1.3c-2.1,1.4-4.6,2-7.2,1.9
	l-0.1,0c-3.3-0.2-6.4,1.5-7.9,4.4l0,0c-1.2,2.2-3,4-5.3,5.1l0,0c-1.4,0.7-2.6,1.7-3.4,3.1s-1.2,2.9-1.1,4.5l0,0.1
	c0.1,2.5-0.6,4.9-2,7c-0.9,1.3-1.4,2.8-1.4,4.4c0,1.6,0.5,3.1,1.4,4.4C32,38.7,32.7,41.2,32.6,43.7z M81.8,42.4
	c0,5.5-3.9,9.9-8.7,9.9c-4.8,0-8.7-4.4-8.7-9.9c0-5.5,3.9-9.9,8.7-9.9C77.9,32.5,81.8,36.9,81.8,42.4L81.8,42.4z M72.7,12.2
	c0.1-0.2,0.3-0.4,0.5-0.5c0.2-0.1,0.4-0.2,0.6-0.3c0.2-0.1,0.5-0.1,0.7,0c0.2,0,0.4,0.1,0.6,0.2c0.2,0.1,0.4,0.3,0.5,0.5
	c0.1,0.2,0.2,0.4,0.3,0.6s0.1,0.5,0,0.7c0,0.2-0.1,0.4-0.2,0.6L51.8,52.4c-0.3,0.4-0.6,0.7-1.1,0.8c-0.5,0.1-0.9,0-1.3-0.2
	c-0.4-0.2-0.7-0.6-0.8-1.1c-0.1-0.5,0-0.9,0.2-1.3L72.7,12.2z M51.3,12.3c4.8,0,8.7,4.4,8.7,9.9c0,5.5-3.9,9.9-8.7,9.9
	s-8.7-4.4-8.7-9.9C42.7,16.8,46.6,12.3,51.3,12.3z"/>
<path class="st1" d="M68,42.4c0,3.5,2.3,6.4,5.1,6.4c2.8,0,5.1-2.9,5.1-6.4c0-3.5-2.3-6.4-5.1-6.4C70.3,36,68,38.9,68,42.4z
	 M93,75.2L93,75.2l-16.4,7.8c0.2,0.9,0.3,1.8,0.2,2.8c0,0.5-0.2,0.9-0.5,1.2c-0.3,0.3-0.8,0.5-1.2,0.5H75l-24-0.7
	c-0.5,0-0.9-0.2-1.2-0.6c-0.3-0.3-0.5-0.8-0.5-1.3c0-0.5,0.2-0.9,0.6-1.2c0.3-0.3,0.8-0.5,1.3-0.5l22,0.6c-0.4-2.1-1.4-4-3-5.3
	c-1.6-1.4-3.6-2.2-5.7-2.2l-14.6-0.4c-2.9-0.1-5.7-0.8-8.3-2.1l-1.5-0.8c-3.6-1.9-7.6-2.7-11.6-2.5s-7.9,1.5-11.3,3.8l-0.6,21.2
	l2.5-1.3c2.5-1.3,5.4-1.7,8.1-0.9l24.8,6.9c4.8,1,9.7,0.4,14.2-1.6l34.3-22.2c-1-1-2.2-1.6-3.5-1.8C95.6,74.3,94.2,74.5,93,75.2z
	 M0.5,99.1l0.9-31.6l12.5,0.3L13,99.5L0.5,99.1z"/>
</svg>
