<?xml version="1.0" encoding="utf-8"?>
<!-- Generator: Adobe Illustrator 24.0.2, SVG Export Plug-In . SVG Version: 6.00 Build 0)  -->
<svg version="1.1" id="Layer_1" xmlns="http://www.w3.org/2000/svg" xmlns:xlink="http://www.w3.org/1999/xlink" x="0px" y="0px"
	 viewBox="0 0 113 68" style="enable-background:new 0 0 113 68;" xml:space="preserve">
<style type="text/css">
	.st0{fill-rule:evenodd;clip-rule:evenodd;fill:#FFFFFF;}
</style>
<path class="st0" d="M80.6,0.9c9.8,2.3,13.5,8,18.2,15.9H80.6V0.9z M23.3,17.4c1.9,0,3.3,0.9,3.3,3.1c0,0.9-0.3,1.7-1,2.3
	c-0.6,0.6-1.5,1-2.3,1h-20c-0.9,0-1.7,0.3-2.3,1c-0.6,0.6-1,1.5-1,2.3c0,0.9,0.3,1.7,1,2.3c0.6,0.6,1.5,1,2.3,1h29.8
	c0.4,0,0.9,0.1,1.3,0.2c0.4,0.2,0.8,0.4,1.1,0.7c0.3,0.3,0.6,0.7,0.7,1.1c0.2,0.4,0.3,0.8,0.3,1.3c0,0.4-0.1,0.9-0.2,1.3
	c-0.2,0.4-0.4,0.8-0.7,1.1c-0.3,0.3-0.7,0.6-1.1,0.7c-0.4,0.2-0.8,0.3-1.3,0.3H3.3c-0.9,0-1.7,0.3-2.3,1c-0.6,0.6-1,1.5-1,2.3
	c0,0.9,0.3,1.7,1,2.3c0.6,0.6,1.5,1,2.3,1h7.3v9.9c0,0.9,0.3,1.7,1,2.3c0.6,0.6,1.5,1,2.3,1h6.7c0.6,2.9,2.1,5.4,4.4,7.3
	c2.3,1.8,5.1,2.9,8,2.9c2.9,0,5.8-1,8-2.9c2.3-1.8,3.8-4.4,4.4-7.3H79c0.6,2.9,2.1,5.4,4.4,7.3c2.3,1.8,5.1,2.9,8,2.9
	c2.9,0,5.8-1,8-2.9c2.3-1.8,3.8-4.4,4.4-7.3h5.8c0.9,0,1.7-0.3,2.3-1c0.6-0.6,1-1.5,1-2.3V33.8c0-9.7-10.2-10.4-10.3-10.4H77.2
	c-0.9,0-1.7-0.3-2.3-1c-0.6-0.6-1-1.5-1-2.3V0.2h-60c-0.9,0-1.7,0.3-2.3,1c-0.6,0.6-1,1.5-1,2.3v7.3h-4c-0.9,0-1.7,0.3-2.3,1
	c-0.6,0.6-1,1.5-1,2.3s0.3,1.7,1,2.3c0.6,0.6,1.5,1,2.3,1H23.3z M95.8,50.1c0.6,0.6,1,1.2,1.3,2c0.3,0.7,0.5,1.5,0.5,2.3
	c0,0.8-0.2,1.6-0.5,2.3c-0.3,0.7-0.8,1.4-1.3,2c-3.8,3.8-10.4,1.1-10.4-4.3C85.4,49,92,46.3,95.8,50.1z M37.3,50.1
	c0.6,0.6,1,1.2,1.3,2c0.3,0.7,0.5,1.5,0.5,2.3c0,0.8-0.2,1.6-0.5,2.3c-0.3,0.7-0.8,1.4-1.3,2c-3.8,3.8-10.4,1.1-10.4-4.3
	C26.9,49,33.5,46.3,37.3,50.1z"/>
</svg>
