<svg xmlns="http://www.w3.org/2000/svg" width="866" height="683" viewBox="0 0 866 683" fill="none"><path d="M294.652 336.091L294.262 335.171C294.262 335.171 296.262 334.311 299.902 333.061L300.232 334.001C296.642 335.251 294.672 336.081 294.652 336.091Z" fill="#FF7900"></path><path d="M629.16 376.22C625.23 376.22 621.16 376.06 617.09 375.86V374.86C621.16 375.05 625.21 375.18 629.09 375.21L629.16 376.22ZM641.24 376.06V375.06C645.34 374.91 649.38 374.66 653.24 374.3L653.33 375.3C649.41 375.66 645.36 375.91 641.24 376.06ZM605.04 375.06C601.13 374.73 597.09 374.33 593.04 373.86L593.16 372.86C597.16 373.32 601.23 373.72 605.16 374.05L605.04 375.06ZM665.28 373.82L665.13 372.82C669.2 372.18 673.13 371.4 676.91 370.5L677.14 371.5C673.37 372.39 669.38 373.17 665.28 373.82ZM581.07 372.32C577.16 371.76 573.15 371.14 569.15 370.47L569.32 369.47C573.32 370.14 577.32 370.77 581.21 371.32L581.07 372.32ZM557.28 368.32C553.41 367.58 549.43 366.78 545.45 365.94L545.66 364.94C549.66 365.78 553.6 366.58 557.46 367.32L557.28 368.32ZM688.76 368.1L688.43 367.15C691.832 365.993 695.17 364.658 698.43 363.15L699.53 362.62L699.98 363.51L698.85 364.06C695.558 365.584 692.19 366.939 688.76 368.12V368.1ZM533.67 363.32C529.79 362.41 525.84 361.46 521.95 360.48L522.19 359.48C526.08 360.48 530.02 361.41 533.9 362.31L533.67 363.32ZM510.28 357.43C508.28 356.89 506.34 356.353 504.46 355.82C502.58 355.286 500.65 354.73 498.67 354.15L498.95 353.15C500.87 353.716 502.797 354.273 504.73 354.82C506.664 355.366 508.6 355.9 510.54 356.42L510.28 357.43ZM710.1 356.83L709.46 356.07C712.514 353.507 715.283 350.624 717.72 347.47L718.51 348.08C716.032 351.298 713.212 354.239 710.1 356.85V356.83ZM487.16 350.53C483.44 349.3 479.6 347.97 475.76 346.58L476.1 345.64C479.93 347.02 483.76 348.35 487.47 349.58L487.16 350.53ZM464.47 342.33C461.21 341.06 457.83 339.7 454.47 338.33L453.31 337.85L453.69 336.93L454.85 337.4C458.24 338.8 461.61 340.15 464.85 341.4L464.47 342.33ZM724.9 337.77L724 337.33C725.238 334.787 726.287 332.156 727.14 329.46C726.34 329.6 725.55 329.74 724.78 329.86L724.62 328.86C725.55 328.72 726.5 328.55 727.47 328.37C727.69 327.62 727.9 326.87 728.09 326.12L729.09 326.36C728.94 326.96 728.77 327.56 728.6 328.16C731.1 327.66 733.71 327.06 736.38 326.36L736.63 327.36C733.76 328.12 730.96 328.76 728.28 329.28C727.371 332.198 726.241 335.043 724.9 337.79V337.77ZM442 333.66C438.22 332.37 434.35 331.18 430.51 330.12L430.78 329.12C434.64 330.18 438.52 331.38 442.32 332.67L442 333.66ZM712.7 330.9C708.646 330.933 704.608 330.401 700.7 329.32L700.98 328.32C704.808 329.385 708.767 329.904 712.74 329.86L712.7 330.9ZM311.7 330.47L311.44 329.47C315.25 328.47 319.19 327.47 323.17 326.6L323.38 327.6C319.43 328.47 315.5 329.43 311.71 330.47H311.7ZM418.85 327.24C414.97 326.4 410.99 325.66 407.04 325.03L407.19 324.03C411.19 324.65 415.19 325.4 419.07 326.25L418.85 327.24ZM335.2 325.38L335.04 324.38C338.99 323.74 343.04 323.19 347.04 322.75L347.15 323.75C343.15 324.19 339.14 324.74 335.21 325.38H335.2ZM748.2 323.86L747.88 322.92C749.12 322.5 750.38 322.06 751.66 321.6C754.18 320.7 756.66 319.73 759.13 318.71L759.52 319.63C757.06 320.63 754.52 321.63 752 322.54C750.68 323 749.41 323.44 748.17 323.86H748.2ZM395.2 323.49C391.2 323.08 387.2 322.79 383.2 322.6L383.25 321.6C387.25 321.79 391.32 322.09 395.25 322.49L395.2 323.49ZM690.14 323.36C687.2 320.471 685.042 316.882 683.87 312.93L684.87 312.64C685.993 316.427 688.057 319.867 690.87 322.64L690.14 323.36ZM359.14 322.74L359.08 321.74C363.08 321.51 367.14 321.38 371.15 321.35V322.35C367.13 322.38 363.09 322.51 359.1 322.74H359.14ZM770.5 314.56L770.04 313.67C773.62 311.85 777.14 309.87 780.51 307.79L781.03 308.64C777.6 310.73 774.06 312.72 770.46 314.56H770.5ZM730.78 314.37H729.78C729.78 313.86 729.78 313.37 729.78 312.82C729.782 309.356 729.427 305.901 728.72 302.51L729.72 302.31C730.444 305.766 730.806 309.288 730.8 312.82C730.77 313.32 730.76 313.85 730.74 314.37H730.78ZM791 301.88L790.41 301.07C793.63 298.69 796.77 296.16 799.75 293.54L800.41 294.29C797.42 296.93 794.25 299.48 791 301.88ZM683.46 300.94L682.46 300.84C682.886 296.751 684.233 292.813 686.4 289.32L687.25 289.85C685.163 293.211 683.87 297.004 683.47 300.94H683.46ZM724.86 291.23C723.217 287.628 720.775 284.448 717.72 281.93L718.34 281.14C721.51 283.753 724.043 287.053 725.75 290.79L724.86 291.23ZM809.13 285.9L808.4 285.21C811.161 282.315 813.768 279.277 816.21 276.11L817.01 276.72C814.547 279.913 811.92 282.978 809.14 285.9H809.13ZM695.6 281.67L695.1 280.81C697.688 279.288 700.531 278.251 703.49 277.75C704.581 277.563 705.684 277.453 706.79 277.42V278.42C705.734 278.45 704.681 278.557 703.64 278.74C700.807 279.218 698.086 280.211 695.61 281.67H695.6ZM823.77 266.67L822.91 266.17C824.919 262.721 826.655 259.12 828.1 255.4L829.03 255.76C827.571 259.533 825.816 263.184 823.78 266.68L823.77 266.67ZM832.33 244.09L831.33 243.92C831.947 240.541 832.258 237.114 832.26 233.68C832.26 233.126 832.26 232.576 832.26 232.03H833.26C833.26 232.59 833.26 233.15 833.26 233.71C833.261 237.193 832.953 240.67 832.34 244.1L832.33 244.09ZM830.67 220.21C829.741 216.33 828.466 212.542 826.86 208.89L827.77 208.49C829.409 212.201 830.708 216.054 831.65 220L830.67 220.21ZM821.24 198.32L821.04 197.99L811.39 191.85L811.93 191L821.82 197.36L822.09 197.79L821.24 198.32ZM801.24 185.32L791.08 178.84L791.62 178L801.78 184.48L801.24 185.32ZM780.92 172.37L770.76 166L771.3 165.15L781.46 171.63L780.92 172.37ZM760.6 159.37L750.44 153L750.98 152.16L761.14 158.64L760.6 159.37ZM740.28 146.42L730.12 140L730.65 139.15L740.81 145.63L740.28 146.42ZM249.22 145.97C245.16 145.91 241.1 145.79 237.16 145.61L237.21 144.61C241.14 144.79 245.21 144.91 249.21 144.97L249.22 145.97ZM261.28 145.97V144.97C265.28 144.91 269.28 144.78 273.28 144.6V145.6C269.31 145.87 265.25 146 261.28 146.06V145.97ZM285.39 145L285.32 144C289.32 143.72 293.32 143.38 297.32 143L297.42 144C293.42 144.37 289.37 144.71 285.39 145ZM225.12 144.95C221.07 144.62 217.03 144.22 213.12 143.75L213.23 142.75C217.14 143.21 221.16 143.62 225.23 143.95L225.12 144.95ZM309.41 142.67L309.29 141.67C313.24 141.19 317.29 140.67 321.23 140.07L321.37 141.07C317.4 141.64 313.37 142.18 309.41 142.66V142.67ZM201.16 142.08C197.16 141.44 193.16 140.71 189.29 139.91L189.49 138.91C193.35 139.7 197.33 140.43 201.32 141.07L201.16 142.08ZM333.29 139.18L333.13 138.18C337.13 137.51 341.08 136.78 344.98 136.02L345.17 137.02C341.27 137.76 337.27 138.49 333.29 139.17V139.18ZM177.53 137.18C173.58 136.18 169.68 135.06 165.91 133.88L166.21 132.93C169.96 134.1 173.85 135.21 177.78 136.21L177.53 137.18ZM357 134.54L356.78 133.54C360.89 132.63 364.84 131.7 368.5 130.76L368.75 131.76C365.07 132.69 361.11 133.62 357 134.54ZM720 133.54L709.84 127.06L710.38 126.22L720.54 132.7L720 133.54ZM154.49 130C150.69 128.57 146.93 127 143.32 125.41L143.73 124.5C147.32 126.11 151.06 127.64 154.84 129.07L154.49 130ZM380.4 128.66L380.14 127.66C384.01 126.66 387.94 125.61 391.81 124.66L392.06 125.66C388.19 126.56 384.26 127.58 380.4 128.61V128.66ZM403.76 122.79L403.53 121.79C407.41 120.87 411.37 119.97 415.29 119.11L415.5 120.11C411.59 120.93 407.64 121.83 403.76 122.74V122.79ZM699.63 120.66L689.47 114.18L690.01 113.34L700.17 119.81L699.63 120.66ZM427.28 117.66L427.08 116.66C431.01 115.86 435 115.08 438.91 114.34L439.1 115.34C435.19 116 431.21 116.77 427.28 117.57V117.66ZM451 113.12L450.83 112.12C454.75 111.45 458.75 110.79 462.73 110.12L462.88 111.12C458.86 111.78 454.86 112.44 451 113.12ZM678.72 109.75C675.07 109.07 671.07 108.41 666.84 107.75L666.99 106.75C671.23 107.38 675.24 108.04 678.9 108.75L678.72 109.75ZM474.79 109.38L474.65 108.38C478.65 107.82 482.65 107.29 486.65 106.79L486.77 107.79C482.72 108.29 478.7 108.82 474.74 109.38H474.79ZM498.69 106.38L498.58 105.38C502.58 104.94 506.58 104.53 510.58 104.16L510.67 105.16C506.65 105.54 502.62 106 498.64 106.39L498.69 106.38ZM654.91 106.17C650.99 105.69 646.91 105.25 642.91 104.85L643.01 103.85C647.01 104.24 651.07 104.69 655.01 105.17L654.91 106.17ZM522.67 104.12L522.59 103.12C526.59 102.81 530.59 102.52 534.59 102.28L534.65 103.28C530.63 103.54 526.58 103.82 522.62 104.13L522.67 104.12ZM630.94 103.8C627.01 103.49 622.94 103.22 618.94 102.98L619 101.98C623 102.22 627.09 102.49 631 102.8L630.94 103.8ZM546.71 102.63V101.63C550.71 101.44 554.8 101.29 558.71 101.17V102.17C554.73 102.31 550.68 102.46 546.66 102.64L546.71 102.63ZM606.9 102.4C602.9 102.24 598.9 102.12 594.9 102.03V101.03C598.9 101.12 602.99 101.24 606.9 101.4V102.4ZM570.78 101.93V100.93C574.887 100.87 578.907 100.87 582.84 100.93V101.93C578.874 101.883 574.837 101.886 570.73 101.94L570.78 101.93Z" fill="#FF7900"></path><path d="M132.411 120C130.631 119.06 128.861 118.08 127.141 117.1L127.641 116.23C129.351 117.23 131.111 118.23 132.881 119.12L132.411 120Z" fill="#FF7900"></path><path d="M240.772 211.72L265.132 189.19H350.902C357.037 189.248 362.945 186.868 367.326 182.571C371.706 178.275 374.201 172.415 374.262 166.28V95.2196C374.204 89.1982 371.757 83.4463 367.459 79.2288C363.16 75.0114 357.363 72.6736 351.342 72.7296H239.492C233.301 72.6709 227.34 75.0736 222.92 79.4092C218.5 83.7448 215.983 89.6584 215.922 95.8496V165.25C215.953 168.425 216.61 171.563 217.854 174.485C219.098 177.406 220.906 180.054 223.173 182.277C225.441 184.501 228.124 186.255 231.07 187.441C234.016 188.627 237.166 189.221 240.342 189.19H240.772V211.72Z" fill="white"></path><path d="M240.178 213.059V189.779C233.639 189.793 227.358 187.223 222.704 182.629C218.05 178.035 215.399 171.788 215.328 165.249V95.8492C215.407 89.5084 217.993 83.4565 222.52 79.0158C227.046 74.5751 233.147 72.1065 239.488 72.1492H351.338C357.513 72.0986 363.455 74.4989 367.863 78.8237C372.27 83.1485 374.782 89.0448 374.848 95.2192V166.279C374.815 169.398 374.169 172.48 372.945 175.349C371.721 178.218 369.944 180.818 367.715 183C365.487 185.182 362.85 186.904 359.956 188.067C357.062 189.231 353.967 189.812 350.848 189.779H265.358L240.178 213.059ZM239.488 73.3192C233.452 73.2632 227.641 75.6039 223.329 79.8278C219.017 84.0516 216.557 89.8136 216.488 95.8492V165.249C216.559 171.504 219.108 177.476 223.575 181.855C228.042 186.234 234.063 188.663 240.318 188.609H241.318V210.379L264.868 188.609H350.868C356.847 188.66 362.603 186.338 366.873 182.152C371.143 177.966 373.58 172.258 373.648 166.279V95.2192C373.585 89.3542 371.197 83.754 367.008 79.648C362.82 75.5421 357.173 73.2659 351.308 73.3192H239.488Z" fill="#FF7900"></path><path d="M335.602 166.819C335.602 166.819 347.512 188.509 358.662 184.049L367.732 175.729L371.502 164.999L353.552 153.199L340.482 154.699L335.602 166.819Z" fill="#2F2E41"></path><path d="M483.54 335.631L506.4 314.081H586.88C592.696 314.081 598.274 311.77 602.387 307.657C606.499 303.545 608.81 297.967 608.81 292.151V224.151C608.81 218.446 606.543 212.975 602.51 208.941C598.476 204.907 593.004 202.641 587.3 202.641H482.3C479.395 202.641 476.518 203.213 473.835 204.324C471.151 205.436 468.713 207.065 466.658 209.119C464.604 211.173 462.975 213.612 461.863 216.296C460.752 218.979 460.18 221.856 460.18 224.761V291.151C460.18 297.227 462.593 303.054 466.89 307.35C471.186 311.647 477.014 314.061 483.09 314.061H483.5L483.54 335.631Z" fill="white"></path><path d="M483.001 337V314.66C476.804 314.608 470.879 312.11 466.513 307.711C462.148 303.312 459.696 297.368 459.691 291.17V224.78C459.697 218.761 462.09 212.989 466.345 208.731C470.601 204.474 476.372 202.078 482.391 202.07H587.391C593.249 202.078 598.865 204.41 603.006 208.553C607.147 212.696 609.476 218.312 609.481 224.17V292.17C609.476 298.14 607.103 303.863 602.883 308.085C598.663 312.307 592.941 314.682 586.971 314.69H506.631L483.001 337ZM482.391 203.26C476.683 203.266 471.21 205.536 467.173 209.572C463.137 213.609 460.867 219.082 460.861 224.79V291.18C460.867 297.098 463.22 302.772 467.405 306.957C471.589 311.142 477.263 313.495 483.181 313.5H484.181V334.29L506.231 313.5H586.941C592.6 313.495 598.024 311.245 602.025 307.244C606.026 303.243 608.276 297.818 608.281 292.16V224.16C608.276 218.614 606.07 213.296 602.148 209.373C598.226 205.451 592.908 203.246 587.361 203.24L482.391 203.26Z" fill="#FF7900"></path><path d="M608.81 253.36V296.77C607.079 302.417 603.537 307.337 598.73 310.77C598.73 310.77 596.67 305.86 593.56 300.18L593 314.08H513.2L510.61 278.16L489.17 287C489.17 287 474.7 294.24 467.97 284.42L447.57 255.21L463.57 243.07L480.36 260.9L501.8 240.22C501.8 240.22 519.66 221.62 546.92 224.22L564.39 224.75L583.21 226.3C583.21 226.3 606.48 231.65 608.81 253.36Z" fill="#FF7900"></path><path opacity="0.2" d="M593.559 300.13C593.559 300.13 595.889 269.38 602.869 255.43V307.07C601.637 308.445 600.247 309.67 598.729 310.72L593.559 300.13Z" fill="black"></path><path opacity="0.4" d="M524.43 226.71L551.75 287.28L584.9 226.71L583.23 226.23L577.84 225.78L551.21 272.91L531.07 225C531.07 225 526 226.19 524.43 226.71Z" fill="white"></path><path opacity="0.4" d="M531.07 224.999L551.21 272.939L577.84 225.809L564.41 224.709L546.94 224.179C546.94 224.179 537.36 223.339 531.07 224.999Z" fill="white"></path><path d="M732.302 200.64L708.302 220.74V200.64H707.302C701.281 200.64 695.507 198.248 691.25 193.991C686.993 189.734 684.602 183.96 684.602 177.94V115.25C684.602 109.176 687.014 103.351 691.309 99.0569C695.603 94.7623 701.428 92.3496 707.502 92.3496H808.092C813.973 92.3523 819.613 94.6899 823.772 98.8489C827.931 103.008 830.269 108.648 830.272 114.53V181.53C830.269 186.604 828.251 191.47 824.662 195.057C821.073 198.644 816.206 200.66 811.132 200.66L732.302 200.64Z" fill="white"></path><path d="M707.67 222V201.23H707.28C701.107 201.219 695.191 198.761 690.827 194.396C686.463 190.03 684.008 184.112 684 177.94V115.25C684.008 109.023 686.486 103.054 690.889 98.6519C695.293 94.25 701.263 91.7748 707.49 91.7695H808.09C814.124 91.7775 819.908 94.1779 824.175 98.4445C828.442 102.711 830.842 108.496 830.85 114.53V181.53C830.845 186.758 828.765 191.771 825.068 195.468C821.371 199.165 816.358 201.244 811.13 201.25H732.52L707.67 222ZM707.48 92.9395C701.565 92.9475 695.893 95.3002 691.71 99.4821C687.526 103.664 685.171 109.334 685.16 115.25V177.94C685.171 183.802 687.505 189.421 691.651 193.566C695.797 197.71 701.418 200.042 707.28 200.05H708.85V219.49L732.09 200.05H811.09C816.006 200.044 820.72 198.09 824.197 194.614C827.675 191.139 829.632 186.426 829.64 181.51V114.51C829.635 108.785 827.358 103.297 823.311 99.2489C819.263 95.2012 813.774 92.9248 808.05 92.9195L707.48 92.9395Z" fill="#FF7900"></path><path d="M114.658 525.139L74.4581 624.799C74.1864 625.476 73.7183 626.056 73.114 626.464C72.5098 626.872 71.7972 627.09 71.0681 627.089H58.1181C57.6645 627.089 57.2185 626.974 56.8223 626.753C56.4261 626.532 56.0929 626.214 55.8544 625.828C55.616 625.442 55.4801 625.002 55.4597 624.549C55.4393 624.096 55.5352 623.645 55.7381 623.239L107.568 520.119C109.808 521.839 112.171 523.512 114.658 525.139Z" fill="#A7A9AC"></path><path d="M192.361 548.17L161.771 623.46C161.609 623.861 161.547 624.296 161.593 624.726C161.638 625.156 161.788 625.568 162.03 625.927C162.272 626.285 162.598 626.579 162.98 626.782C163.362 626.985 163.788 627.09 164.221 627.09H174.221C175.321 627.091 176.391 626.734 177.271 626.074C178.151 625.414 178.793 624.486 179.101 623.43L200.911 548.17H192.361Z" fill="#A7A9AC"></path><path d="M326.231 627.24C329.821 627.24 335.431 627.24 339.321 627.16C339.789 627.155 340.247 627.029 340.652 626.797C341.058 626.564 341.397 626.231 341.638 625.83C341.878 625.429 342.012 624.973 342.027 624.506C342.041 624.039 341.936 623.575 341.721 623.16L295.471 531.16L286.371 537.36L321.551 624C321.922 624.943 322.565 625.755 323.398 626.332C324.232 626.909 325.218 627.225 326.231 627.24Z" fill="#A7A9AC"></path><path d="M70.5394 297.59C70.5394 297.59 136.109 315.5 208.899 305.59C211.311 305.242 213.765 305.81 215.779 307.182C217.792 308.553 219.22 310.629 219.779 313C222.099 323.23 225.439 342.25 226.269 369.43C226.269 369.43 238.019 430.86 247.829 445.08C247.829 445.08 253.269 456.79 295.469 462.65C295.469 462.65 314.119 467.25 333.779 465.58C333.779 465.58 350.929 461.81 347.169 482.31C347.169 482.31 341.879 538.31 246.839 553.19L139.909 520.84L72.3194 435.08L61.8594 373.59L70.5394 297.59Z" fill="#D1D3D4"></path><path d="M146.999 454.421C146.999 454.421 124.669 508.001 200.239 517.001H230.299C231.676 516.998 233.018 517.436 234.129 518.251C235.239 519.066 236.059 520.216 236.469 521.531C241.999 539.281 262.999 604.191 279.829 627.091L304.459 623.091C304.459 623.091 297.929 555.731 289.379 532.611L351.209 593.941L376.349 573.831L318.289 495.661C318.289 495.661 305.999 470.261 277.569 462.721L237.739 445.001L222.999 432.561L146.999 454.421Z" fill="#2F2E41"></path><path d="M286.368 383.29L282.088 410.45C273.548 445.37 262.998 443.74 262.998 443.74C261.237 444.691 259.174 444.917 257.248 444.37C256.799 444.25 256.359 444.103 255.928 443.93C255.233 443.61 254.564 443.236 253.928 442.81C253.329 442.434 252.758 442.017 252.218 441.56L251.588 441.03C250.17 439.755 248.865 438.36 247.688 436.86C244.557 432.797 241.856 428.42 239.628 423.8C239.428 423.4 239.248 423 239.058 422.58C239.008 422.49 238.968 422.38 238.918 422.28C238.896 422.234 238.876 422.187 238.858 422.14C238.858 422.14 238.858 422.08 238.808 422.05C238.796 422.002 238.779 421.955 238.758 421.91C238.467 420.949 237.995 420.053 237.368 419.27L237.258 419.16C237.236 419.11 237.199 419.068 237.153 419.04C237.106 419.011 237.052 418.997 236.998 419C236.923 418.94 236.836 418.897 236.743 418.874C236.649 418.852 236.552 418.85 236.458 418.87C236.412 418.856 236.364 418.856 236.318 418.87C236.267 418.887 236.222 418.918 236.188 418.96C236.137 418.99 236.09 419.027 236.048 419.07C235.999 419.119 235.956 419.172 235.918 419.23C235.867 419.284 235.823 419.344 235.788 419.41C235.751 419.468 235.718 419.528 235.688 419.59C235.623 419.699 235.567 419.813 235.518 419.93C235.271 420.571 235.116 421.245 235.058 421.93C235.058 422.14 235.058 422.4 235.058 422.67V436.89C234.928 440.65 237.178 444.17 237.728 444.98L237.838 445.13H237.778C237.368 444.89 236.958 444.66 236.538 444.46L236.228 444.31C231.663 442.26 226.689 441.285 221.688 441.46C216.938 441.532 212.208 442.105 207.578 443.17H207.518C205.518 443.63 203.638 444.11 202.098 444.55C200.491 445.026 198.92 445.618 197.398 446.32H197.318C196.378 446.74 195.468 447.2 194.548 447.68L193.658 448.14C187.508 451.14 180.058 452.86 172.938 453.76C164.344 454.784 155.671 454.985 147.038 454.36C142.408 453.03 142.818 447.87 143.608 444.6C143.959 443.223 144.441 441.884 145.048 440.6C152.178 424.55 146.388 391.6 146.388 391.6C144.388 377.33 144.238 367.91 144.658 361.91C145.039 355.338 147.898 349.156 152.658 344.61C162.438 335.53 171.318 341.39 171.318 341.39C196.958 358.56 229.318 352.61 229.318 352.61C232.448 351.92 235.578 354.01 237.778 356.01C239.322 357.463 240.667 359.114 241.778 360.92C246.668 368.73 253.358 382.37 256.778 389.56L257.098 390.22C257.528 391.11 257.888 391.88 258.188 392.51L258.328 392.82L258.858 393.93L259.038 394.33L263.308 380.52L286.368 383.29Z" fill="#FF7900"></path><path d="M261.738 391.84L271.738 345.66C271.9 344.929 272.306 344.275 272.89 343.806C273.473 343.337 274.2 343.081 274.948 343.08H292.158L283.408 387C283.314 387.488 283.071 387.936 282.713 388.281C282.355 388.626 281.9 388.853 281.408 388.93L261.738 391.84Z" fill="#2F2E41"></path><path d="M292.151 343.079L292.481 341.529C292.535 341.289 292.535 341.04 292.479 340.801C292.424 340.561 292.316 340.337 292.162 340.145C292.008 339.953 291.813 339.798 291.592 339.691C291.37 339.585 291.127 339.529 290.881 339.529H273.381C272.718 339.529 272.074 339.755 271.556 340.169C271.038 340.584 270.677 341.162 270.531 341.809L259.531 391.809H261.741L271.671 345.999C271.846 345.18 272.297 344.445 272.949 343.919C273.6 343.393 274.413 343.107 275.251 343.109L292.151 343.079Z" fill="#2F2E41"></path><path opacity="0.2" d="M292.151 343.079L292.481 341.529C292.535 341.289 292.535 341.04 292.479 340.801C292.424 340.561 292.316 340.337 292.162 340.145C292.008 339.953 291.813 339.798 291.592 339.691C291.37 339.585 291.127 339.529 290.881 339.529H273.381C272.718 339.529 272.074 339.755 271.556 340.169C271.038 340.584 270.677 341.162 270.531 341.809L259.531 391.809H261.741L271.671 345.999C271.846 345.18 272.297 344.445 272.949 343.919C273.6 343.393 274.413 343.107 275.251 343.109L292.151 343.079Z" fill="#231F20"></path><path opacity="0.2" d="M257.25 444.349C256.793 444.262 256.349 444.114 255.93 443.909C255.235 443.59 254.566 443.215 253.93 442.789C253.42 442.449 252.84 442.039 252.22 441.539L251.59 441.009C250.253 439.841 249.015 438.563 247.89 437.189L247.66 436.919C244.476 432.876 241.79 428.464 239.66 423.779C239.46 423.379 239.28 422.979 239.09 422.559C239.04 422.469 239 422.359 238.95 422.259C238.928 422.213 238.908 422.167 238.89 422.119C238.89 422.119 238.89 422.059 238.84 422.029C238.828 421.981 238.812 421.934 238.79 421.889C238.502 420.928 238.03 420.031 237.4 419.249L237.29 419.139C237.264 419.088 237.221 419.046 237.169 419.021C237.116 418.996 237.057 418.988 237 418.999C236.942 418.949 236.874 418.912 236.8 418.889H236.63H236.46H236.32L236.19 418.979L236.05 419.089L235.92 419.249C235.869 419.303 235.826 419.363 235.79 419.429C235.79 419.489 235.72 419.539 235.69 419.609C235.626 419.718 235.569 419.832 235.52 419.949C235.192 420.563 235.033 421.253 235.06 421.949C235.06 422.159 235.06 422.419 235.06 422.689V436.909C234.999 439.832 235.941 442.687 237.73 444.999L237.84 445.149H237.78C237.382 444.899 236.968 444.676 236.54 444.479L236.23 444.329C231.641 442.359 226.684 441.388 221.69 441.479C216.935 441.479 212.198 442.053 207.58 443.189H207.52C204.082 444.018 200.702 445.071 197.4 446.339H197.32L193.66 448.159C193.21 448.409 185.86 452.349 172.94 453.779H172.54C171.909 453.78 171.289 453.616 170.741 453.302C170.193 452.987 169.738 452.535 169.42 451.989C165.79 445.629 155.28 424.549 154.23 391.779C154.23 391.779 161.77 428.979 175.6 438.279C175.6 438.279 182.6 442.279 192.43 436.009C192.43 436.009 224.87 421.429 237.18 399.829C235.624 398.408 234.343 396.714 233.4 394.829L235.14 389.549C235.805 389.575 236.468 389.453 237.08 389.192C237.692 388.93 238.239 388.537 238.68 388.039C238.68 388.039 235.01 400.859 243.39 400.109C243.39 400.109 250.25 398.589 256.78 389.549L257.1 390.209L258.19 392.499L258.33 392.809L258.86 393.919L259.04 394.319L253.44 417.999C253.44 417.999 249.76 433.309 257.25 444.349Z" fill="#231F20"></path><path opacity="0.2" d="M177.289 369.471C177.289 369.471 187.839 390.081 190.109 405.161C190.109 405.161 206.879 393.811 219.879 384.641C224.624 381.301 228.861 377.293 232.459 372.741C233.729 371.131 235.139 369.341 236.599 367.461C236.599 367.461 216.909 381.461 203.199 384.511C201.013 384.987 198.744 384.929 196.585 384.34C194.426 383.752 192.441 382.651 190.799 381.131C187.699 378.311 182.789 373.931 177.289 369.471Z" fill="#231F20"></path><path opacity="0.2" d="M177.289 369.471C177.289 369.471 186.669 384.881 192.959 396.541C193.296 397.164 193.865 397.629 194.543 397.835C195.221 398.041 195.952 397.971 196.579 397.641L214.999 388.071L190.119 405.161C190.119 405.161 187.839 389.831 177.289 369.471Z" fill="#231F20"></path><path opacity="0.2" d="M247.829 437.19L247.599 436.92C244.414 432.877 241.728 428.465 239.599 423.78C239.399 423.38 239.219 422.98 239.029 422.56C238.979 422.47 238.939 422.36 238.889 422.26C238.866 422.214 238.846 422.168 238.829 422.12C238.829 422.12 238.829 422.06 238.779 422.03C238.767 421.982 238.75 421.935 238.729 421.89C238.437 420.93 237.966 420.033 237.339 419.25L237.229 419.14C237.206 419.099 237.173 419.064 237.132 419.039C237.092 419.015 237.046 419.001 236.999 419C236.94 418.95 236.872 418.912 236.799 418.89H236.629H236.459H236.319L236.189 418.98L236.049 419.09L235.919 419.25C235.867 419.304 235.824 419.364 235.789 419.43C235.789 419.49 235.719 419.54 235.689 419.61C235.624 419.719 235.567 419.833 235.519 419.95C235.271 420.591 235.116 421.265 235.059 421.95C235.059 422.16 235.059 422.42 235.059 422.69V405.17C235.059 405.17 240.059 424.17 247.619 436.84L247.829 437.19Z" fill="#231F20"></path><path opacity="0.2" d="M258.999 394.35L257.459 391C257.459 391 252.299 410.34 253.459 418L258.999 394.35Z" fill="#231F20"></path><path opacity="0.2" d="M295.471 624.54L279.831 627.09C279.831 627.09 263.481 608.51 236.471 521.54C236.471 521.54 235.931 517.01 228.901 517.01H200.241C200.241 517.01 145.001 513.49 143.901 473.53C143.901 473.53 143.551 462.96 146.971 454.42C146.971 454.42 166.691 454.97 172.871 453.82C172.871 453.82 188.111 451.76 194.511 447.73C194.511 447.73 175.611 458.03 189.021 463.73C189.021 463.73 204.431 464.07 205.441 487.53C206.924 494.302 209.716 500.719 213.661 506.42C215.235 508.542 217.235 510.312 219.532 511.617C221.829 512.922 224.372 513.734 227.001 514C233.911 514.79 245.221 518.82 251.001 535.79C251.001 535.77 269.211 605.07 295.471 624.54Z" fill="#231F20"></path><path opacity="0.2" d="M351.209 593.92L361.149 585.97C361.149 585.97 330.929 572.39 310.149 543.38C308.199 540.617 306.837 537.482 306.149 534.17C303.809 523.24 296.149 495.99 276.979 486.17C276.979 486.17 215.369 452.97 231.369 442.59C218.867 440.175 205.916 441.98 194.549 447.72L192.359 449C192.359 449 232.579 466.7 252.019 477.76C252.019 477.76 274.559 486.3 280.339 502.89L289.339 532.55L351.209 593.92Z" fill="#231F20"></path><path d="M226.879 378.871C226.879 378.871 228.129 391.991 233.329 394.871L234.579 391.091C234.711 390.669 234.942 390.284 235.251 389.967C235.56 389.651 235.94 389.412 236.359 389.271C237.17 389.001 237.93 388.599 238.609 388.081C242.114 386.556 245.008 383.902 246.829 380.541C246.829 380.541 250.679 372.861 253.269 376.841C253.269 376.841 257.799 384.251 256.119 371.151C256.119 371.151 256.119 364.851 250.119 365.471C249.988 365.494 249.853 365.474 249.733 365.416C249.613 365.357 249.516 365.262 249.453 365.144C249.391 365.027 249.368 364.892 249.387 364.76C249.406 364.628 249.466 364.506 249.559 364.411C250.449 363.491 252.389 362.411 256.559 362.041C256.559 362.041 260.339 361.461 262.179 358.751C262.297 358.57 262.358 358.358 262.357 358.142C262.355 357.927 262.29 357.716 262.17 357.537C262.049 357.358 261.879 357.218 261.679 357.135C261.48 357.052 261.261 357.03 261.049 357.071C258.066 357.711 255.029 358.072 251.979 358.151C250.222 358.129 248.476 358.431 246.829 359.041C243.529 360.311 238.559 362.901 236.659 367.471C236.599 367.461 229.999 376.091 226.879 378.871Z" fill="#F9B499"></path><path d="M285.209 377.919L286.209 373.099C286.209 373.099 276.519 364.859 278.699 361.009C278.699 361.009 275.009 355.909 280.039 356.619C280.039 356.619 278.749 350.729 284.229 353.129C284.229 353.129 285.569 346.929 292.229 351.629C294.69 352.933 296.697 354.951 297.988 357.418C299.278 359.885 299.792 362.685 299.459 365.449C299.33 366.777 298.784 368.031 297.899 369.029C295.479 371.719 290.309 376.999 285.209 377.919Z" fill="#F9B499"></path><path d="M280.5 362.35L289.22 369.47" stroke="#F7A48B" stroke-miterlimit="10"></path><path d="M282.18 357.66C282.18 357.66 290.3 360.57 293.24 365.66" stroke="#F7A48B" stroke-miterlimit="10"></path><path d="M286.371 354.141C286.371 354.141 294.581 356.141 297.261 362.351" stroke="#F7A48B" stroke-miterlimit="10"></path><path d="M283.201 626.549C283.201 626.549 282.411 643.269 290.351 648.549L314.201 664.169C314.201 664.169 319.481 667.089 330.331 664.169L342.021 660.169C342.021 660.169 350.271 658.059 342.021 652.499L314.431 635.549C309.925 632.466 306.442 628.106 304.431 623.029L283.201 626.549Z" fill="#FF7900"></path><path d="M354.379 591.39C354.379 591.39 358.919 607 370.839 604.88L409.999 598.23C409.999 598.23 433.299 596.43 428.269 591.39C428.269 591.39 421.949 583.94 401.409 584.87C395.517 585.156 389.631 584.178 384.149 582C380.069 580.36 376.149 578.06 374.879 575L354.379 591.39Z" fill="#FF7900"></path><path opacity="0.2" d="M510.609 278.16L489.169 287C489.169 287 474.699 294.24 467.969 284.42C474.893 285.412 481.95 284.883 488.649 282.87C488.649 282.87 498.189 279.96 503.339 274.72C504.349 273.676 504.983 272.325 505.139 270.88L506.999 254L510.609 278.16Z" fill="black"></path><path opacity="0.2" d="M471.738 251.67C471.738 251.67 472.058 262.67 480.548 266.33C480.79 266.437 481.055 266.486 481.319 266.471C481.584 266.456 481.841 266.378 482.069 266.245C482.298 266.111 482.491 265.924 482.634 265.701C482.776 265.478 482.863 265.224 482.888 264.96L483.538 257.81L480.378 260.81L471.738 251.67Z" fill="black"></path><path d="M550.619 241.999C550.712 241.46 550.69 240.907 550.552 240.377C550.414 239.848 550.164 239.354 549.819 238.929C549.074 238.002 548.588 236.895 548.409 235.719L547.809 232.949L558.119 234.079L559.749 235.209C559.346 236.604 558.666 237.904 557.749 239.029C557.338 239.461 557.015 239.969 556.801 240.525C556.586 241.081 556.484 241.673 556.499 242.269L557.409 262.269L551.249 272.949L546.969 262.809L550.619 241.999Z" fill="#2F2E41"></path><path d="M447.571 246.51L442.071 237.99C441.589 237.243 440.925 236.63 440.141 236.21C436.551 234.28 426.311 227.73 433.461 218.9C433.862 218.397 434.08 217.773 434.08 217.13C434.08 216.487 433.862 215.863 433.461 215.36C431.261 212.57 427.601 207.45 429.041 206.01C429.041 206.01 430.331 201.17 441.761 215.85C441.801 215.904 441.857 215.944 441.921 215.964C441.984 215.984 442.053 215.982 442.116 215.96C442.179 215.937 442.233 215.895 442.27 215.839C442.307 215.783 442.325 215.717 442.321 215.65C442.044 213.555 442.153 211.427 442.641 209.37C442.678 209.263 442.738 209.165 442.818 209.085C442.898 209.005 442.995 208.944 443.103 208.907C443.21 208.87 443.324 208.859 443.437 208.873C443.549 208.888 443.657 208.928 443.751 208.99C444.321 209.37 445.011 210.24 445.231 212.22C445.295 212.787 445.49 213.332 445.801 213.81C448.011 217.294 449.314 221.275 449.591 225.39C449.653 227.378 450.414 229.279 451.741 230.76L458.601 238.22L447.571 246.51Z" fill="#F9B499"></path><path d="M803.219 126.25L802.549 200.48H753.289V188.4C753.288 186.617 752.98 184.848 752.379 183.17C751.269 180.02 749.259 174.44 747.259 169.32V169.2C746.449 167.01 734.519 132.97 761.409 121.62C763.24 120.839 765.129 120.203 767.059 119.72C767.059 119.72 778.469 116.4 786.819 119.72L803.219 126.25Z" fill="#FF7900"></path><path d="M761.372 121.6C755.837 123.776 751.173 127.716 748.102 132.81C739.532 147.33 746.602 167.49 747.222 169.17C745.74 170.572 744.697 172.375 744.222 174.36C743.849 175.828 743.219 177.22 742.362 178.47C738.432 183.97 734.582 182.33 732.282 180.38C731.468 179.683 730.748 178.883 730.142 178C727.742 173.86 725.212 172.55 723.722 172.15C721.977 171.697 720.297 171.025 718.722 170.15C714.972 167.97 713.722 165.91 713.722 165.91C706.352 156.53 719.422 152.85 719.422 152.85C726.812 149.28 732.422 141.85 734.732 138.48C735.37 137.516 735.948 136.514 736.462 135.48C744.762 119.18 761.372 121.6 761.372 121.6Z" fill="#FF7900"></path><path opacity="0.4" d="M761.372 121.6C755.837 123.776 751.173 127.716 748.102 132.81C739.532 147.33 746.602 167.49 747.222 169.17C745.74 170.572 744.697 172.375 744.222 174.36C743.849 175.828 743.219 177.22 742.362 178.47C738.432 183.97 734.582 182.33 732.282 180.38C731.468 179.683 730.748 178.883 730.142 178C727.742 173.86 725.212 172.55 723.722 172.15C721.977 171.697 720.297 171.025 718.722 170.15C714.972 167.97 713.722 165.91 713.722 165.91C706.352 156.53 719.422 152.85 719.422 152.85C726.812 149.28 732.422 141.85 734.732 138.48C735.37 137.516 735.948 136.514 736.462 135.48C744.762 119.18 761.372 121.6 761.372 121.6Z" fill="white"></path><path opacity="0.2" d="M748.101 132.84C739.531 147.36 746.601 167.52 747.221 169.2C745.738 170.603 744.696 172.406 744.221 174.39C743.848 175.859 743.218 177.25 742.361 178.5C736.141 187.21 730.141 178.03 730.141 178.03C730.141 178.03 740.531 179.7 740.531 164.29C740.531 164.29 738.531 139.91 748.081 132.83L748.101 132.84Z" fill="white"></path><path d="M830.268 166.28V183.78C826.51 183.509 822.771 184.517 819.658 186.64C813.858 190.5 809.808 191.8 807.008 191.64C801.678 191.27 800.788 185.55 800.788 181.74C800.822 178.168 800.507 174.601 799.848 171.09C798.837 165.85 797.405 160.7 795.568 155.69C783.818 130.69 803.218 126.26 803.218 126.26C809.838 125.38 814.448 128.96 817.278 132.42C819.134 134.74 820.556 137.376 821.478 140.2L830.268 166.28Z" fill="#FF7900"></path><path opacity="0.4" d="M830.268 166.28V183.78C826.51 183.509 822.771 184.517 819.658 186.64C813.858 190.5 809.808 191.8 807.008 191.64C801.678 191.27 800.788 185.55 800.788 181.74C800.822 178.168 800.507 174.601 799.848 171.09C798.837 165.85 797.405 160.7 795.568 155.69C783.818 130.69 803.218 126.26 803.218 126.26C809.838 125.38 814.448 128.96 817.278 132.42C819.134 134.74 820.556 137.376 821.478 140.2L830.268 166.28Z" fill="white"></path><path d="M830.271 183.781C824.121 204.521 804.891 200.111 804.891 200.111L808.271 197.401C810.271 195.401 807.181 191.771 807.011 191.631C809.811 191.801 813.861 190.501 819.661 186.631C822.775 184.511 826.514 183.507 830.271 183.781Z" fill="#F9B499"></path><path d="M732.298 180.41C725.108 188.78 715.198 192.41 711.588 193.56C710.622 193.874 709.6 193.983 708.588 193.88C691.848 191.95 660.588 154.57 660.588 154.57C653.708 151.89 642.988 142.51 642.988 142.51H667.618C669.118 144.35 669.808 148.03 669.808 148.03L704.568 170.42C705.381 170.938 706.347 171.163 707.305 171.058C708.264 170.952 709.158 170.523 709.838 169.84L713.698 165.96C713.698 165.96 714.938 168.02 718.698 170.2C720.273 171.076 721.954 171.748 723.698 172.2C725.188 172.6 727.698 173.91 730.118 178.05C730.739 178.928 731.471 179.722 732.298 180.41Z" fill="#F9B499"></path><path d="M669.17 116.949H636.5V142.509H669.17V116.949Z" fill="#FF7900"></path><path d="M650.839 112.17C649.579 111.67 648.369 111.09 647.149 110.51C645.929 109.93 644.759 109.31 643.599 108.67C642.439 108.03 641.019 107.67 640.199 106.67C639.739 106.143 639.355 105.554 639.059 104.92C638.693 104.194 638.456 103.408 638.359 102.6L638.649 102.22C639.458 102.106 640.281 102.136 641.079 102.31C641.772 102.436 642.445 102.654 643.079 102.96C644.329 103.48 644.989 104.78 645.909 105.73C646.829 106.68 647.729 107.73 648.599 108.73C649.469 109.73 650.339 110.79 651.149 111.88L650.839 112.17Z" fill="#2F2E41"></path><path d="M654 111.8C654.82 110.71 655.69 109.68 656.55 108.65C657.41 107.62 658.32 106.65 659.24 105.65C660.16 104.65 660.82 103.4 662.08 102.88C662.713 102.568 663.386 102.346 664.08 102.22C664.876 102.055 665.695 102.028 666.5 102.14L666.79 102.52C666.696 103.328 666.463 104.113 666.1 104.84C665.797 105.47 665.414 106.058 664.96 106.59C664.13 107.67 662.71 107.98 661.55 108.59C660.39 109.2 659.21 109.85 658 110.43C656.79 111.01 655.58 111.59 654.31 112.09L654 111.8Z" fill="#2F2E41"></path><path d="M332.702 72.7402C332.702 82.7402 328.822 91.3302 323.202 95.3402C321.151 96.8672 318.668 97.704 316.112 97.7302C313.932 97.7175 311.799 97.0977 309.952 95.9402C303.822 92.2702 299.512 83.2602 299.512 72.7402C299.512 58.9302 306.942 47.7402 316.112 47.7402C325.282 47.7402 332.702 58.9302 332.702 72.7402Z" fill="#F9B499"></path><path d="M323.2 95.3403L325 108.49C328.69 108.16 331.37 111.17 331.37 111.17C341.93 113.68 358.68 128.43 358.68 128.43L374.26 142.84C374.26 131.45 353.15 108.99 353.15 108.99C342.76 100.28 342.76 86.5403 342.76 86.5403C343.76 61.0703 337.4 54.3703 337.4 54.3703C320.65 36.6103 310.26 47.7403 310.26 47.7403C297.86 48.1403 297.19 53.0303 297.19 53.0303C289.81 64.4203 299.69 76.5003 299.69 76.5003C299.69 76.5003 298.37 64.0503 304.06 55.5003C304.06 55.5003 326.25 81.1603 332.58 75.8003C332.58 75.8203 331.79 89.3903 323.2 95.3403Z" fill="#2F2E41"></path><path d="M337.187 78.3023C337.654 74.7262 335.798 71.5359 333.044 71.1767C330.289 70.8174 327.678 73.4253 327.212 77.0014C326.745 80.5775 328.6 83.7678 331.355 84.127C334.11 84.4863 336.721 81.8784 337.187 78.3023Z" fill="#F9B499"></path><path d="M307.699 94.3008C307.699 94.3008 298.209 110.671 294.449 113.061C294.449 113.061 303.009 107.281 308.919 107.901L309.919 95.9008C309.12 95.4552 308.375 94.9183 307.699 94.3008Z" fill="#2F2E41"></path><path d="M324.998 108.491C321.218 114.601 315.438 113.691 315.438 113.691C313.807 113.776 312.207 113.217 310.984 112.134C309.761 111.051 309.012 109.531 308.898 107.901L309.898 95.9008C311.746 97.0582 313.879 97.6781 316.058 97.6908C318.615 97.6645 321.098 96.8277 323.148 95.3008L324.998 108.491Z" fill="#F9B499"></path><path d="M309.941 95.9398C309.941 95.9398 313.831 102.57 319.321 102.38C319.896 102.341 320.462 102.529 320.899 102.902C321.337 103.276 321.61 103.807 321.661 104.38C321.831 106.82 321.661 110.58 319.771 113.05C319.771 113.05 323.501 111.71 325.011 108.48L323.201 95.3398C323.201 95.3398 317.741 100.31 309.941 95.9398Z" fill="#F7A48B"></path><path d="M294.448 113.061C294.448 113.061 265.288 133.371 253.718 145.201C253.718 145.201 244.518 117.591 228.718 119.201L215.898 127.881V136.291C215.898 136.291 231.358 161.101 246.558 170.161C250.021 172.209 254.136 172.853 258.058 171.961C267.368 169.88 276 165.477 283.148 159.161C283.148 159.161 291.028 174.411 288.398 189.931H332.698C332.698 189.931 333.048 180.141 333.768 173.751C334.013 171.575 334.583 169.448 335.458 167.441C336.958 163.981 339.568 157.811 340.458 154.691C340.458 154.691 354.518 165.581 364.098 171.551C364.669 171.894 365.083 172.448 365.252 173.092C365.42 173.737 365.329 174.422 364.998 175.001C362.508 179.151 356.778 187.911 351.808 189.901C351.808 189.901 369.678 187.791 374.278 170.441V142.841C374.278 142.841 347.278 115.531 331.388 111.171L313.188 117.331L302.098 109.131C299.401 110.132 296.833 111.451 294.448 113.061Z" fill="#FF7900"></path><path opacity="0.2" d="M258.09 171.93C258.09 171.93 275.99 162.19 276.49 154.93C276.49 154.93 274.99 140.04 279.49 134.42C279.49 134.42 280.49 152.75 283.15 159.16C283.17 159.13 274.37 168.35 258.09 171.93Z" fill="black"></path><path opacity="0.2" d="M327.77 134.391C327.77 134.391 332.84 152.161 340.48 154.661L335.6 166.821C334.781 168.874 334.269 171.038 334.08 173.241L332.7 189.901H320C320 189.901 332.12 183.851 331 162.141C331 162.141 326.51 139.511 327.77 134.391Z" fill="black"></path><path d="M203.352 110.42C203.352 110.42 207.802 118.86 214.922 118.96L217.432 122.23L225.432 116.7L222.002 110.42H203.352Z" fill="#F9B499"></path><path d="M737.999 73.001L727.439 70.361C723.929 72.4657 719.822 73.3493 715.757 72.8741C711.692 72.3989 707.899 70.5915 704.97 67.7339C702.041 64.8764 700.14 61.1295 699.563 57.078C698.987 53.0264 699.769 48.8981 701.786 45.3373C703.802 41.7764 706.941 38.9834 710.712 37.3941C714.483 35.8047 718.674 35.5084 722.632 36.5514C726.589 37.5944 730.089 39.918 732.587 43.1597C735.085 46.4013 736.439 50.3787 736.439 54.471C736.438 57.8952 735.49 61.2525 733.699 64.171L737.999 73.001Z" fill="#FF7900"></path><path d="M723.709 57.3091C725.234 57.3091 726.469 56.0734 726.469 54.5491C726.469 53.0248 725.234 51.7891 723.709 51.7891C722.185 51.7891 720.949 53.0248 720.949 54.5491C720.949 56.0734 722.185 57.3091 723.709 57.3091Z" fill="white"></path><path d="M711.481 63.18C712.497 63.18 713.321 62.3562 713.321 61.34C713.321 60.3238 712.497 59.5 711.481 59.5C710.464 59.5 709.641 60.3238 709.641 61.34C709.641 62.3562 710.464 63.18 711.481 63.18Z" fill="white"></path><path d="M711.481 48.3499C712.497 48.3499 713.321 47.5261 713.321 46.5099C713.321 45.4937 712.497 44.6699 711.481 44.6699C710.464 44.6699 709.641 45.4937 709.641 46.5099C709.641 47.5261 710.464 48.3499 711.481 48.3499Z" fill="white"></path><path d="M712.967 47.521L712.527 48.2832L721.292 53.3417L721.732 52.5795L712.967 47.521Z" fill="white"></path><path d="M721.247 55.75L712.988 60.3223L713.415 61.0922L721.673 56.5199L721.247 55.75Z" fill="white"></path><path d="M669.17 128.449H636.5V131.509H669.17V128.449Z" fill="#2F2E41"></path><path d="M654.18 116.949H650.07V142.509H654.18V116.949Z" fill="#2F2E41"></path><path d="M425.951 204.37C438.41 204.37 448.511 194.27 448.511 181.81C448.511 169.35 438.41 159.25 425.951 159.25C413.491 159.25 403.391 169.35 403.391 181.81C403.391 194.27 413.491 204.37 425.951 204.37Z" fill="#FF7900"></path><path d="M426.001 201.169C422.172 201.169 418.429 200.034 415.245 197.906C412.061 195.779 409.58 192.756 408.114 189.218C406.649 185.68 406.266 181.788 407.013 178.032C407.76 174.277 409.604 170.827 412.311 168.12C415.019 165.412 418.468 163.568 422.224 162.821C425.979 162.074 429.872 162.458 433.409 163.923C436.947 165.388 439.971 167.87 442.098 171.053C444.225 174.237 445.361 177.98 445.361 181.809C445.355 186.942 443.314 191.863 439.684 195.493C436.055 199.123 431.134 201.164 426.001 201.169ZM426.001 162.999C422.286 162.997 418.654 164.097 415.564 166.159C412.475 168.222 410.066 171.154 408.643 174.586C407.22 178.017 406.847 181.793 407.57 185.437C408.294 189.081 410.082 192.428 412.708 195.055C415.334 197.683 418.68 199.472 422.323 200.198C425.966 200.923 429.743 200.552 433.175 199.131C436.607 197.71 439.541 195.302 441.605 192.214C443.669 189.125 444.771 185.494 444.771 181.779C444.765 176.802 442.786 172.03 439.268 168.509C435.749 164.989 430.978 163.007 426.001 162.999Z" fill="white"></path><path d="M427.34 167.35H426.75V197.76H427.34V167.35Z" fill="white"></path><path d="M426.862 193H422.152V192.42H426.862C428.133 192.417 429.351 191.91 430.249 191.011C431.147 190.111 431.652 188.891 431.652 187.62V187C431.649 185.913 431.216 184.872 430.448 184.104C429.679 183.335 428.638 182.903 427.552 182.9C426.803 182.9 426.062 182.753 425.37 182.466C424.679 182.18 424.05 181.76 423.521 181.231C422.992 180.701 422.572 180.073 422.285 179.381C421.999 178.69 421.852 177.949 421.852 177.2C421.852 176.451 421.999 175.71 422.285 175.019C422.572 174.327 422.992 173.699 423.521 173.169C424.05 172.64 424.679 172.22 425.37 171.934C426.062 171.647 426.803 171.5 427.552 171.5H432.002V172H427.602C426.246 172 424.947 172.538 423.988 173.497C423.03 174.455 422.492 175.755 422.492 177.11C422.492 178.465 423.03 179.765 423.988 180.723C424.947 181.682 426.246 182.22 427.602 182.22C428.845 182.22 430.038 182.714 430.918 183.594C431.797 184.473 432.292 185.666 432.292 186.91V187.6C432.294 188.312 432.155 189.018 431.883 189.677C431.611 190.335 431.21 190.933 430.705 191.435C430.2 191.937 429.6 192.334 428.94 192.603C428.281 192.872 427.574 193.007 426.862 193Z" fill="white"></path><path d="M229.24 352.631C222.96 358.351 212.87 359.301 206.67 359.291C202.446 359.289 198.254 358.573 194.27 357.171C180.67 352.301 171.27 341.401 171.27 341.401L180.77 342.001C182.148 342.092 183.527 341.835 184.781 341.253C186.034 340.671 187.12 339.783 187.94 338.671C190.248 335.369 191.745 331.57 192.31 327.581C192.725 325.094 192.859 322.568 192.71 320.051C201.61 333.891 213.71 332.691 213.71 332.691V333.691L213.9 339.481C213.928 340.243 214.031 341 214.21 341.741C214.598 343.486 215.448 345.095 216.67 346.401C221.54 351.501 229.24 352.631 229.24 352.631Z" fill="#F9B499"></path><path d="M214.19 341.711C206.264 338.056 198.895 333.299 192.3 327.581C192.296 327.569 192.289 327.559 192.281 327.55C192.272 327.541 192.262 327.535 192.25 327.531C192.653 325.059 192.804 322.553 192.7 320.051C200.09 334.311 213.7 332.691 213.7 332.691C213.7 332.971 213.7 333.381 213.7 333.691L213.89 339.481C213.917 340.232 214.017 340.979 214.19 341.711Z" fill="#F7A48B"></path><path d="M211.962 332.819C224.725 332.819 235.072 320.032 235.072 304.259C235.072 288.486 224.725 275.699 211.962 275.699C199.198 275.699 188.852 288.486 188.852 304.259C188.852 320.032 199.198 332.819 211.962 332.819Z" fill="#F9B499"></path><path d="M167.48 317.44C167.48 317.44 174.77 326.84 191.11 332.82C191.11 332.82 193.53 323.9 192.7 320.04C191.652 318.072 190.811 316.001 190.19 313.86L185.59 298.2C185.59 298.2 188.32 296.75 189.49 297.59C189.49 297.59 188.23 305.74 189.04 307.91C189.04 307.91 191.2 301.35 194.33 299.38C195.764 298.548 196.996 297.411 197.94 296.05C198.925 294.563 199.576 292.881 199.85 291.12C199.884 290.738 200.057 290.382 200.335 290.119C200.613 289.855 200.978 289.703 201.36 289.69C204.978 289.619 208.558 290.433 211.79 292.06C212.209 292.272 212.68 292.358 213.147 292.309C213.614 292.259 214.056 292.075 214.42 291.78L220.35 286.95L218.35 292.49C218.313 292.595 218.298 292.707 218.306 292.819C218.314 292.93 218.345 293.039 218.396 293.138C218.448 293.238 218.519 293.325 218.606 293.396C218.693 293.467 218.793 293.519 218.9 293.55L222.79 294.6C223.199 294.709 223.634 294.669 224.016 294.485C224.398 294.302 224.701 293.987 224.87 293.6L227.56 287.74C227.575 287.694 227.605 287.656 227.646 287.632C227.687 287.608 227.736 287.6 227.782 287.61C227.829 287.62 227.87 287.647 227.897 287.686C227.924 287.725 227.936 287.772 227.93 287.82V294.38C227.93 294.793 228.052 295.197 228.279 295.542C228.507 295.887 228.831 296.157 229.21 296.32C230.85 297.02 233.63 298.39 234.85 299.99C234.85 299.99 237.27 313.48 228.07 324.75C228.07 324.75 222.71 331.87 213.71 332.75L213.84 336.89L235.43 335.54C236.122 335.496 236.773 335.198 237.259 334.703C237.744 334.209 238.03 333.552 238.06 332.86C238.304 326.621 239.291 320.434 241 314.43C241 314.43 249.16 282.93 235.11 271.37C235.11 271.37 208.96 251.86 189.76 273.53C189.27 274.08 188.76 274.63 188.24 275.15C186.01 277.33 178.65 285.78 175.82 304.26C175.78 304.26 173.1 315.43 167.48 317.44Z" fill="#2F2E41"></path><path d="M188.85 312.68C192.319 312.68 195.13 308.91 195.13 304.26C195.13 299.61 192.319 295.84 188.85 295.84C185.382 295.84 182.57 299.61 182.57 304.26C182.57 308.91 185.382 312.68 188.85 312.68Z" fill="#F9B499"></path><path d="M246.83 553.219C182.64 555.279 141.26 542.619 114.66 525.139C112.173 523.506 109.81 521.839 107.57 520.139C71.82 492.799 67.45 456.809 67.57 445.319C67.5951 442.232 67.4248 439.146 67.06 436.079C54.59 336.489 33 287.479 33 287.479C83.74 269.059 73.24 330.479 73.24 330.479L71.74 397.129C70.23 438.129 131.56 454.739 131.56 454.739L189.86 472.239C197.43 475.239 198.25 485.959 197.66 494.239C196.94 504.329 198.66 516.789 206.95 525.489C224.68 544.049 246.83 553.219 246.83 553.219Z" fill="#BCBEC0"></path><path d="M784.571 122.709C784.12 123.069 783.649 123.403 783.161 123.709C777.591 127.099 774.161 124.269 772.581 122.059C771.801 120.983 771.468 119.646 771.651 118.329L772.701 110.329L773.381 105.109H785.761L787.181 116.599C787.31 117.757 787.138 118.928 786.681 119.998C786.223 121.069 785.496 122.003 784.571 122.709Z" fill="#F9B499"></path><path d="M784.569 122.71C784.119 123.07 783.648 123.404 783.159 123.71V116.88C783.157 116.424 782.991 115.983 782.692 115.638C782.393 115.294 781.981 115.067 781.529 115C778.158 114.415 775.063 112.764 772.699 110.29L773.379 105.07H785.759L787.179 116.56C787.316 117.724 787.148 118.903 786.69 119.981C786.232 121.06 785.501 122 784.569 122.71Z" fill="#F7A48B"></path><path d="M779.891 110.23C789.97 110.23 798.141 100.161 798.141 87.74C798.141 75.3191 789.97 65.25 779.891 65.25C769.811 65.25 761.641 75.3191 761.641 87.74C761.641 100.161 769.811 110.23 779.891 110.23Z" fill="#F9B499"></path><path d="M761.639 87.7402C761.639 87.7402 757.719 62.3202 779.889 61.3402C779.889 61.3402 789.339 61.0202 796.189 67.8602C796.189 67.8602 805.639 57.7602 811.499 65.2502C811.499 65.2502 820.629 77.9702 802.699 80.5702C802.699 80.5702 802.019 95.2502 795.839 98.6702C795.839 98.6702 793.999 87.7402 787.599 85.4602C787.599 85.4602 775.329 81.2302 772.069 70.1402C772.069 70.1402 764.899 70.4702 761.639 87.7402Z" fill="#2F2E41"></path><path d="M798.799 100.256C799.978 98.2132 799.701 95.8457 798.18 94.9676C796.659 94.0895 794.47 95.0332 793.291 97.0755C792.112 99.1179 792.389 101.485 793.91 102.363C795.431 103.242 797.62 102.298 798.799 100.256Z" fill="#F9B499"></path><path d="M671.43 110.23H633.73V116.94H671.43V110.23Z" fill="#FF7900"></path><path opacity="0.2" d="M671.43 110.23H633.73V116.94H671.43V110.23Z" fill="white"></path><path d="M231.248 84.8594H198.578V110.419H231.248V84.8594Z" fill="#FF7900"></path><path d="M212.919 80.09C211.659 79.58 210.449 79 209.229 78.43C208.009 77.86 206.839 77.22 205.679 76.58C204.519 75.94 203.099 75.58 202.279 74.58C201.819 74.0531 201.435 73.464 201.139 72.83C200.776 72.1026 200.543 71.3175 200.449 70.51L200.729 70.14C201.538 70.0226 202.36 70.0497 203.159 70.22C203.852 70.3454 204.525 70.564 205.159 70.87C206.419 71.39 207.069 72.69 207.989 73.65C208.909 74.61 209.809 75.59 210.679 76.65C211.549 77.71 212.419 78.7 213.229 79.8L212.919 80.09Z" fill="#2F2E41"></path><path d="M216.109 79.7194C216.929 78.6194 217.799 77.5994 218.659 76.5694C219.519 75.5394 220.429 74.5694 221.349 73.5694C222.269 72.5694 222.929 71.3194 224.189 70.7994C224.822 70.4905 225.496 70.2717 226.189 70.1494C226.988 69.9741 227.811 69.947 228.619 70.0694L228.899 70.4394C228.806 71.2469 228.572 72.032 228.209 72.7594C227.906 73.3893 227.523 73.9775 227.069 74.5094C226.249 75.5994 224.819 75.8994 223.659 76.5094C222.499 77.1194 221.319 77.7694 220.109 78.3594C218.899 78.9494 217.689 79.5094 216.419 80.0194L216.109 79.7194Z" fill="#2F2E41"></path><path d="M231.248 96.3691H198.578V99.4291H231.248V96.3691Z" fill="#2F2E41"></path><path d="M216.258 84.8594H212.148V110.419H216.258V84.8594Z" fill="#2F2E41"></path><path d="M233.509 78.1504H195.809V84.8604H233.509V78.1504Z" fill="#FF7900"></path><path opacity="0.2" d="M233.509 78.1504H195.809V84.8604H233.509V78.1504Z" fill="white"></path><path d="M446.012 247.67L449.042 254.04L463.582 243.02L459.452 237.59L446.012 247.67Z" fill="#E6E7E8"></path><path d="M537.078 224.111L544.768 235.261C545.03 235.645 545.409 235.934 545.849 236.085C546.288 236.237 546.765 236.242 547.208 236.101L552.138 234.541C553.071 234.241 554.082 234.295 554.978 234.691L558.848 236.411C559.639 236.762 560.516 236.872 561.37 236.728C562.224 236.584 563.016 236.192 563.648 235.601L574.458 225.511L564.408 224.681L546.938 224.151C543.655 223.94 540.363 223.927 537.078 224.111Z" fill="#FF7900"></path><path d="M556.851 232.62C556.443 232.761 556.025 232.871 555.601 232.95C551.971 233.07 549.731 230.78 548.411 228.46C547.152 226.189 546.657 223.574 547.001 221L548.061 212.79L562.451 208.58L564.241 220.31C564.65 222.903 564.134 225.557 562.783 227.808C561.432 230.059 559.332 231.762 556.851 232.62Z" fill="#F9B499"></path><path d="M556.85 232.619C559.78 229.289 560.76 223.619 561.09 220.489C561.127 220.206 561.103 219.917 561.019 219.644C560.936 219.37 560.794 219.118 560.605 218.904C560.415 218.69 560.182 218.519 559.92 218.402C559.659 218.286 559.376 218.227 559.09 218.229C551.09 218.229 550.34 213.149 550.34 213.149C552.583 213.314 554.834 212.986 556.937 212.187C559.039 211.389 560.941 210.141 562.51 208.529L564.3 220.259C564.718 222.868 564.2 225.54 562.836 227.802C561.472 230.065 559.352 231.771 556.85 232.619Z" fill="#F7A48B"></path><path d="M551.751 213.23C561.538 213.23 569.471 202.955 569.471 190.28C569.471 177.605 561.538 167.33 551.751 167.33C541.965 167.33 534.031 177.605 534.031 190.28C534.031 202.955 541.965 213.23 551.751 213.23Z" fill="#F9B499"></path><path d="M553.87 179.291C548.52 181.521 535.69 185.801 531.35 177.531C531.35 177.531 525.35 164.461 543.42 162.421C543.42 162.421 550.96 161.191 563.77 165.211C564.336 164.222 565.172 163.415 566.179 162.884C567.187 162.353 568.325 162.119 569.46 162.211C568.896 162.612 568.467 163.174 568.23 163.824C567.992 164.474 567.958 165.181 568.13 165.851C568.13 165.851 571.06 163.341 572.74 163.921C572.74 163.921 570.48 165.571 571.4 167.301C571.4 167.301 580.64 171.881 574.91 190.831L569.07 195.071C563.383 191.978 559.073 186.854 557 180.721C556.896 180.416 556.731 180.136 556.514 179.897C556.298 179.659 556.036 179.466 555.743 179.333C555.45 179.199 555.133 179.126 554.811 179.119C554.489 179.112 554.169 179.17 553.87 179.291Z" fill="#2F2E41"></path><path d="M574.292 195.776C575.69 193.117 575.389 190.207 573.62 189.276C571.85 188.346 569.282 189.747 567.884 192.406C566.485 195.065 566.786 197.975 568.556 198.906C570.325 199.836 572.893 198.435 574.292 195.776Z" fill="#F9B499"></path><path d="M308.91 107.901C307.537 107.39 306.059 107.232 304.61 107.441C304.097 107.542 303.609 107.744 303.176 108.036C302.742 108.327 302.37 108.702 302.082 109.139C301.795 109.575 301.597 110.064 301.5 110.578C301.404 111.092 301.41 111.62 301.52 112.131C302.18 115.131 304.25 119.721 310.8 119.471C310.8 119.471 301.63 141.961 295.34 149.121L296.34 158.051C296.34 158.051 310.54 147.491 313.34 125.121L316.12 151.641L322.38 161.441L325.03 153.441C325.03 153.441 318.24 131.191 318.36 120.131C318.36 120.131 327.36 120.991 330.68 113.341C331.002 112.61 331.098 111.799 330.956 111.013C330.813 110.227 330.438 109.502 329.88 108.931C329.277 108.255 328.438 107.836 327.535 107.761C326.632 107.687 325.735 107.962 325.03 108.531C324.109 110.228 322.716 111.622 321.019 112.545C319.323 113.468 317.395 113.88 315.47 113.731C315.47 113.731 309.92 114.191 308.91 107.901Z" fill="#FF7900"></path><path opacity="0.4" d="M308.91 107.901C307.537 107.39 306.059 107.232 304.61 107.441C304.097 107.542 303.609 107.744 303.176 108.036C302.742 108.327 302.37 108.702 302.082 109.139C301.795 109.575 301.597 110.064 301.5 110.578C301.404 111.092 301.41 111.62 301.52 112.131C302.18 115.131 304.25 119.721 310.8 119.471C310.8 119.471 301.63 141.961 295.34 149.121L296.34 158.051C296.34 158.051 310.54 147.491 313.34 125.121L316.12 151.641L322.38 161.441L325.03 153.441C325.03 153.441 318.24 131.191 318.36 120.131C318.36 120.131 327.36 120.991 330.68 113.341C331.002 112.61 331.098 111.799 330.956 111.013C330.813 110.227 330.438 109.502 329.88 108.931C329.277 108.255 328.438 107.836 327.535 107.761C326.632 107.687 325.735 107.962 325.03 108.531C324.109 110.228 322.716 111.622 321.019 112.545C319.323 113.468 317.395 113.88 315.47 113.731C315.47 113.731 309.92 114.191 308.91 107.901Z" fill="white"></path><path d="M228.742 119.169L225.472 116.699L215.922 122.229V127.849L228.742 119.169Z" fill="#E6E7E8"></path><path d="M213.972 302.404C213.914 302.387 213.859 302.358 213.813 302.319C213.766 302.28 213.727 302.232 213.7 302.178C212.864 300.31 211.8 299.191 210.523 298.833C209.959 298.714 209.376 298.709 208.81 298.818C208.244 298.928 207.706 299.15 207.227 299.472C207.181 299.504 207.13 299.528 207.075 299.54C207.021 299.553 206.964 299.554 206.909 299.545C206.854 299.536 206.801 299.516 206.754 299.486C206.706 299.456 206.665 299.417 206.633 299.372C206.6 299.326 206.577 299.275 206.565 299.22C206.552 299.165 206.55 299.109 206.56 299.054C206.569 298.999 206.589 298.946 206.619 298.898C206.649 298.851 206.687 298.81 206.733 298.777C207.315 298.385 207.97 298.114 208.66 297.983C209.349 297.851 210.059 297.861 210.744 298.012C212.324 298.455 213.568 299.686 214.504 301.829C214.55 301.933 214.553 302.05 214.514 302.156C214.474 302.262 214.395 302.348 214.292 302.397C214.242 302.419 214.188 302.432 214.133 302.433C214.078 302.434 214.023 302.424 213.972 302.404V302.404Z" fill="#2F2E41"></path><path d="M222.223 304.715C222.282 304.731 222.344 304.735 222.404 304.726C222.464 304.717 222.522 304.696 222.573 304.663C224.259 303.502 225.749 303.099 227.026 303.457C227.57 303.648 228.07 303.946 228.497 304.334C228.924 304.722 229.268 305.192 229.51 305.715C229.532 305.767 229.564 305.813 229.604 305.852C229.644 305.891 229.692 305.922 229.744 305.943C229.796 305.964 229.851 305.974 229.907 305.973C229.963 305.972 230.018 305.961 230.07 305.939C230.121 305.916 230.168 305.884 230.207 305.844C230.246 305.804 230.277 305.757 230.297 305.705C230.318 305.653 230.328 305.597 230.328 305.541C230.327 305.485 230.315 305.43 230.293 305.379C230 304.741 229.58 304.169 229.06 303.698C228.539 303.228 227.928 302.868 227.264 302.64C225.684 302.198 223.981 302.603 222.068 303.948C221.975 304.012 221.911 304.111 221.89 304.222C221.868 304.333 221.891 304.448 221.954 304.543C221.985 304.588 222.025 304.627 222.071 304.657C222.117 304.686 222.169 304.706 222.223 304.715V304.715Z" fill="#2F2E41"></path><path d="M224.486 310.692C225.842 311.072 227.25 310.28 227.63 308.924C228.01 307.568 227.219 306.16 225.862 305.78C224.506 305.4 223.098 306.191 222.718 307.548C222.338 308.904 223.129 310.312 224.486 310.692Z" fill="#2F2E41"></path><path d="M208.935 306.336C210.291 306.716 211.699 305.925 212.079 304.569C212.459 303.212 211.668 301.805 210.311 301.425C208.955 301.044 207.547 301.836 207.167 303.192C206.787 304.548 207.579 305.956 208.935 306.336Z" fill="#2F2E41"></path><path d="M207.493 320.499C210.523 322.551 214.175 323.479 217.817 323.124C217.817 323.124 216.481 329.123 210.696 327.092C210.696 327.092 206.286 326.073 207.493 320.499Z" fill="white"></path><path d="M216.173 308.602L217.737 316.33C217.761 316.454 217.756 316.582 217.721 316.703C217.686 316.825 217.623 316.936 217.537 317.029C217.45 317.121 217.343 317.191 217.225 317.234C217.106 317.277 216.978 317.291 216.853 317.275L212.938 316.734" stroke="#F7A48B" stroke-linecap="round" stroke-linejoin="round"></path><path d="M315.697 70.3374C315.746 70.3323 315.794 70.317 315.837 70.2926C315.88 70.2682 315.918 70.2352 315.947 70.1956C316.885 68.8227 317.897 68.081 318.97 67.979C319.439 67.9648 319.905 68.0449 320.342 68.2142C320.779 68.3836 321.177 68.639 321.514 68.9651C321.545 68.9976 321.583 69.0235 321.625 69.0414C321.667 69.0593 321.712 69.0687 321.757 69.0692C321.803 69.0697 321.848 69.0613 321.89 69.0444C321.932 69.0274 321.971 69.0023 322.003 68.9705C322.036 68.9387 322.062 68.9009 322.08 68.859C322.098 68.8172 322.107 68.7723 322.107 68.7268C322.108 68.6813 322.1 68.6362 322.083 68.594C322.066 68.5518 322.041 68.5133 322.009 68.4808C321.6 68.0829 321.115 67.7721 320.583 67.5675C320.05 67.3629 319.482 67.2687 318.912 67.2906C317.584 67.4169 316.412 68.2224 315.355 69.801C315.303 69.8772 315.284 69.9705 315.3 70.061C315.316 70.1515 315.368 70.232 315.443 70.2853C315.479 70.3107 315.521 70.3284 315.565 70.3374C315.608 70.3463 315.653 70.3463 315.697 70.3374V70.3374Z" fill="#2F2E41"></path><path d="M308.765 70.9955C308.716 70.9998 308.666 70.9938 308.619 70.978C308.572 70.9621 308.529 70.9368 308.493 70.9035C307.312 69.7321 306.179 69.1947 305.106 69.2968C304.643 69.3712 304.2 69.5378 303.803 69.7865C303.406 70.0353 303.063 70.3612 302.794 70.7449C302.769 70.7829 302.737 70.8155 302.699 70.8409C302.661 70.8663 302.619 70.8841 302.574 70.8932C302.53 70.9022 302.484 70.9024 302.439 70.8938C302.395 70.8851 302.352 70.8677 302.314 70.8426C302.276 70.8175 302.244 70.7852 302.218 70.7475C302.193 70.7098 302.175 70.6675 302.166 70.6229C302.157 70.5784 302.157 70.5325 302.165 70.4878C302.174 70.4432 302.191 70.4007 302.217 70.3627C302.543 69.8948 302.961 69.4982 303.445 69.1968C303.929 68.8955 304.47 68.6957 305.034 68.6098C306.361 68.4834 307.664 69.0533 309 70.4042C309.065 70.4693 309.102 70.5572 309.103 70.6492C309.104 70.7411 309.069 70.8298 309.005 70.8963C308.974 70.9282 308.937 70.9534 308.895 70.9705C308.854 70.9875 308.81 70.996 308.765 70.9955V70.9955Z" fill="#2F2E41"></path><path d="M306.095 75.4512C304.956 75.5596 303.944 74.7239 303.836 73.5845C303.727 72.4452 304.563 71.4337 305.703 71.3252C306.842 71.2168 307.854 72.0525 307.962 73.1919C308.07 74.3312 307.235 75.3428 306.095 75.4512Z" fill="#2F2E41"></path><path d="M319.162 74.207C318.022 74.3155 317.011 73.4797 316.902 72.3404C316.794 71.201 317.63 70.1895 318.769 70.0811C319.908 69.9727 320.92 70.8084 321.028 71.9477C321.137 73.0871 320.301 74.0986 319.162 74.207Z" fill="#2F2E41"></path><path d="M318.272 85.7412C315.553 86.9451 312.499 87.1612 309.638 86.352C309.638 86.352 309.842 91.3413 314.76 90.5513C314.76 90.5513 318.434 90.3721 318.272 85.7412Z" fill="white"></path><path d="M313.045 74.9763L310.68 80.9301C310.643 81.0257 310.629 81.1289 310.639 81.231C310.65 81.3332 310.684 81.4314 310.74 81.5176C310.796 81.6039 310.871 81.6756 310.96 81.727C311.049 81.7784 311.149 81.8079 311.251 81.8132L314.46 81.9447" stroke="#F7A48B" stroke-width="1.33884" stroke-linecap="round" stroke-linejoin="round"></path><path d="M550.697 187.337C550.746 187.332 550.794 187.317 550.837 187.293C550.88 187.268 550.918 187.235 550.947 187.196C551.885 185.823 552.897 185.081 553.97 184.979C554.439 184.965 554.905 185.045 555.342 185.214C555.779 185.384 556.177 185.639 556.514 185.965C556.545 185.998 556.583 186.024 556.625 186.041C556.667 186.059 556.712 186.069 556.757 186.069C556.803 186.07 556.848 186.061 556.89 186.044C556.932 186.027 556.971 186.002 557.003 185.971C557.036 185.939 557.062 185.901 557.08 185.859C557.098 185.817 557.107 185.772 557.107 185.727C557.108 185.681 557.1 185.636 557.083 185.594C557.066 185.552 557.041 185.513 557.009 185.481C556.6 185.083 556.115 184.772 555.583 184.568C555.05 184.363 554.482 184.269 553.912 184.291C552.584 184.417 551.412 185.222 550.355 186.801C550.303 186.877 550.284 186.971 550.3 187.061C550.316 187.151 550.368 187.232 550.443 187.285C550.479 187.311 550.521 187.328 550.565 187.337C550.608 187.346 550.653 187.346 550.697 187.337V187.337Z" fill="#2F2E41"></path><path d="M543.765 187.996C543.716 188 543.666 187.994 543.619 187.978C543.572 187.962 543.529 187.937 543.493 187.903C542.312 186.732 541.179 186.195 540.106 186.297C539.643 186.371 539.2 186.538 538.803 186.787C538.406 187.035 538.063 187.361 537.794 187.745C537.769 187.783 537.737 187.815 537.699 187.841C537.661 187.866 537.619 187.884 537.574 187.893C537.53 187.902 537.484 187.902 537.439 187.894C537.395 187.885 537.352 187.868 537.314 187.843C537.276 187.818 537.244 187.785 537.218 187.748C537.193 187.71 537.175 187.667 537.166 187.623C537.157 187.578 537.157 187.532 537.165 187.488C537.174 187.443 537.191 187.401 537.217 187.363C537.543 186.895 537.961 186.498 538.445 186.197C538.929 185.895 539.47 185.696 540.034 185.61C541.361 185.483 542.664 186.053 544 187.404C544.065 187.469 544.102 187.557 544.103 187.649C544.104 187.741 544.069 187.83 544.005 187.896C543.974 187.928 543.937 187.953 543.895 187.97C543.854 187.988 543.81 187.996 543.765 187.996V187.996Z" fill="#2F2E41"></path><path d="M541.095 192.451C539.956 192.56 538.944 191.724 538.836 190.585C538.727 189.445 539.563 188.434 540.703 188.325C541.842 188.217 542.854 189.053 542.962 190.192C543.07 191.331 542.235 192.343 541.095 192.451Z" fill="#2F2E41"></path><path d="M554.162 191.207C553.022 191.315 552.011 190.48 551.902 189.34C551.794 188.201 552.63 187.19 553.769 187.081C554.908 186.973 555.92 187.808 556.028 188.948C556.137 190.087 555.301 191.099 554.162 191.207Z" fill="#2F2E41"></path><path d="M554.836 205.334C554.836 205.334 548.095 208.845 543.03 205.013" stroke="#F7A48B" stroke-width="0.851977" stroke-linecap="round" stroke-linejoin="round"></path><path d="M548.045 191.976L545.68 197.93C545.643 198.026 545.629 198.129 545.639 198.231C545.65 198.333 545.684 198.431 545.74 198.518C545.796 198.604 545.871 198.676 545.96 198.727C546.049 198.778 546.149 198.808 546.251 198.813L549.46 198.945" stroke="#F7A48B" stroke-width="1.33884" stroke-linecap="round" stroke-linejoin="round"></path><path d="M780.697 84.3374C780.746 84.3323 780.794 84.317 780.837 84.2926C780.88 84.2682 780.918 84.2352 780.947 84.1956C781.885 82.8227 782.897 82.081 783.97 81.979C784.439 81.9648 784.905 82.0449 785.342 82.2142C785.779 82.3836 786.177 82.639 786.514 82.9651C786.545 82.9976 786.583 83.0235 786.625 83.0414C786.667 83.0593 786.712 83.0687 786.757 83.0692C786.803 83.0697 786.848 83.0613 786.89 83.0444C786.932 83.0274 786.971 83.0023 787.003 82.9705C787.036 82.9387 787.062 82.9009 787.08 82.859C787.098 82.8172 787.107 82.7723 787.107 82.7268C787.108 82.6813 787.1 82.6362 787.083 82.594C787.066 82.5518 787.041 82.5133 787.009 82.4808C786.6 82.0829 786.115 81.7721 785.583 81.5675C785.05 81.3629 784.482 81.2687 783.912 81.2906C782.584 81.4169 781.412 82.2224 780.355 83.801C780.303 83.8772 780.284 83.9705 780.3 84.061C780.316 84.1515 780.368 84.232 780.443 84.2853C780.479 84.3107 780.521 84.3284 780.565 84.3374C780.608 84.3463 780.653 84.3463 780.697 84.3374V84.3374Z" fill="#2F2E41"></path><path d="M773.765 84.9955C773.716 84.9998 773.666 84.9938 773.619 84.978C773.572 84.9621 773.529 84.9368 773.493 84.9035C772.312 83.7321 771.179 83.1947 770.106 83.2968C769.643 83.3712 769.2 83.5378 768.803 83.7865C768.406 84.0353 768.063 84.3612 767.794 84.7449C767.769 84.7829 767.737 84.8155 767.699 84.8409C767.661 84.8663 767.619 84.8841 767.574 84.8932C767.53 84.9022 767.484 84.9024 767.439 84.8938C767.395 84.8851 767.352 84.8677 767.314 84.8426C767.276 84.8175 767.244 84.7852 767.218 84.7475C767.193 84.7098 767.175 84.6675 767.166 84.6229C767.157 84.5784 767.157 84.5325 767.165 84.4878C767.174 84.4432 767.191 84.4007 767.217 84.3627C767.543 83.8948 767.961 83.4982 768.445 83.1968C768.929 82.8955 769.47 82.6957 770.034 82.6098C771.361 82.4834 772.664 83.0533 774 84.4042C774.065 84.4693 774.102 84.5572 774.103 84.6492C774.104 84.7411 774.069 84.8298 774.005 84.8963C773.974 84.9282 773.937 84.9534 773.895 84.9705C773.854 84.9875 773.81 84.996 773.765 84.9955V84.9955Z" fill="#2F2E41"></path><path d="M771.095 89.4512C769.956 89.5596 768.944 88.7239 768.836 87.5845C768.727 86.4452 769.563 85.4337 770.703 85.3252C771.842 85.2168 772.854 86.0525 772.962 87.1919C773.07 88.3312 772.235 89.3428 771.095 89.4512Z" fill="#2F2E41"></path><path d="M784.162 88.207C783.022 88.3155 782.011 87.4797 781.902 86.3404C781.794 85.201 782.63 84.1895 783.769 84.0811C784.908 83.9727 785.92 84.8084 786.028 85.9477C786.137 87.0871 785.301 88.0986 784.162 88.207Z" fill="#2F2E41"></path><path d="M783.272 99.7412C780.553 100.945 777.499 101.161 774.638 100.352C774.638 100.352 774.842 105.341 779.76 104.551C779.76 104.551 783.434 104.372 783.272 99.7412Z" fill="white"></path><path d="M778.045 88.9763L775.68 94.9301C775.643 95.0257 775.629 95.1289 775.639 95.231C775.65 95.3332 775.684 95.4314 775.74 95.5176C775.796 95.6039 775.871 95.6756 775.96 95.727C776.049 95.7784 776.149 95.8079 776.251 95.8132L779.46 95.9447" stroke="#F7A48B" stroke-width="1.33884" stroke-linecap="round" stroke-linejoin="round"></path></svg>