<?xml version="1.0" encoding="utf-8"?>
<!-- Generator: Adobe Illustrator 24.0.2, SVG Export Plug-In . SVG Version: 6.00 Build 0)  -->
<svg version="1.1" id="Layer_1" xmlns="http://www.w3.org/2000/svg" xmlns:xlink="http://www.w3.org/1999/xlink" x="0px" y="0px"
	 viewBox="0 0 1000 1000" style="enable-background:new 0 0 1000 1000;" xml:space="preserve">
<style type="text/css">
	.st0{display:none;}
	.st1{fill:#FFFFFF;}
</style>
<g>
	<path class="st0" d="M500,22.8C237.1,22.8,22.8,237.1,22.8,500S237.2,977.2,500,977.2S977.2,762.8,977.2,500
		C977.2,237.1,762.9,22.8,500,22.8 M500,10c269.9,0,490,220.1,490,490S769.9,990,500,990S10,769.9,10,500S230.1,10,500,10z"/>
	<path class="st1" d="M897.8,355.8h-28.6C849.7,175.2,695.1,32.7,509.6,32.7c-185.9,0-340.1,142.1-359.6,323.1h-28.6
		c-23,0-41.9,18.9-41.9,41.9v293c0,23,18.9,41.9,41.9,41.9h96.6c23,0,41.9-18.9,41.9-41.9v-293c0-23-18.9-41.9-41.9-41.9h-17.6
		C219.6,202.3,351.2,82.7,509.6,82.7c158,0,290,120,309.2,273.1h-17.6c-23,0-41.9,18.9-41.9,41.9v293c0,23,18.9,41.9,41.9,41.9h5.6
		c-12.7,26-32.6,50-56.7,70.2c-50,41.7-115.9,67.8-169.4,67.8h-18.2c-9.9-11.2-24.3-18.3-40.4-18.3h-84.4c-30,0-54.3,24.3-54.3,54.3
		l0,0c0,30,24.5,54.3,54.3,54.3h84.4c24.9,0,45.9-17.2,52.2-40.2h6.4c64.4,0,142.8-30.5,201.4-79.4c35.8-30,64.6-66.8,79-108.4h36.7
		c23,0,41.9-18.9,41.9-41.9V397.8C939.8,374.7,920.9,355.8,897.8,355.8z"/>
	<path class="st1" d="M630.5,412.4c24.9,0,45.3,20.4,45.3,45.3c0,24.9-20.4,45.3-45.3,45.3s-45.3-20.4-45.3-45.3
		C585.2,432.6,605.6,412.4,630.5,412.4 M388.5,412.4c24.9,0,45.3,20.4,45.3,45.3c0,24.9-20.4,45.3-45.3,45.3
		c-24.9,0-45.3-20.4-45.3-45.3C343.2,432.6,363.6,412.4,388.5,412.4z M413.8,678.4c47.9,47.9,143.8,47.9,191.7,0
		c18.2-18.2,44,7.3,25.6,25.6c-60.7,60.7-182.1,60.7-243,0C369.8,685.7,395.4,660,413.8,678.4z"/>
</g>
</svg>
