<svg xmlns="http://www.w3.org/2000/svg" width="386" height="118" viewBox="0 0 386 118">
  <defs>
    <style>
      .cls-1 {
        fill: #666;
      }

      .cls-1, .cls-2, .cls-3 {
        fill-rule: evenodd;
      }

      .cls-2 {
        fill: #eb7128;
      }

      .cls-3 {
        fill: #fff;
      }
    </style>
  </defs>
  <path id="Data_Center" data-name="Data Center" class="cls-1" d="M36.36,97.539a7.85,7.85,0,0,0-1.644-2.673,7.43,7.43,0,0,0-2.549-1.743,8.463,8.463,0,0,0-3.31-.626H22.779v16.918h6.079a8.538,8.538,0,0,0,3.31-.62,7.33,7.33,0,0,0,2.549-1.744,7.9,7.9,0,0,0,1.644-2.679A10.273,10.273,0,0,0,36.36,97.539Zm-2.808,5.915a5.265,5.265,0,0,1-1,1.872,4.389,4.389,0,0,1-1.589,1.176,5.175,5.175,0,0,1-2.1.409h-3.1V95h3.1a5.175,5.175,0,0,1,2.1.41,4.392,4.392,0,0,1,1.589,1.176,5.264,5.264,0,0,1,1,1.872A9.15,9.15,0,0,1,33.552,103.454Zm30.047-.427,1.931-5.6q0.143-.386.3-0.907t0.3-1.117q0.154,0.6.309,1.111t0.3,0.889l1.942,5.628H63.6ZM67.648,92.5H64.625l-6.277,16.918h2.317a0.921,0.921,0,0,0,.629-0.222,1.125,1.125,0,0,0,.342-0.492l1.191-3.451h6.608l1.192,3.451a1.264,1.264,0,0,0,.364.509,0.939,0.939,0,0,0,.629.205h2.295Zm38.691,0H93.75v2.586h4.81v14.333h2.968V95.082h4.81V92.5Zm25.077,10.53,1.93-5.6q0.144-.386.3-0.907t0.3-1.117q0.155,0.6.309,1.111t0.3,0.889l1.941,5.628h-5.074Zm4.048-10.53h-3.022l-6.278,16.918h2.317a0.921,0.921,0,0,0,.629-0.222,1.126,1.126,0,0,0,.342-0.492l1.191-3.451h6.609l1.191,3.451a1.264,1.264,0,0,0,.364.509,0.941,0.941,0,0,0,.629.205h2.295Zm65.61,12.992a1.068,1.068,0,0,0-.232.17,4.921,4.921,0,0,1-.733.591,3.908,3.908,0,0,1-.784.392,4.462,4.462,0,0,1-.9.222,7.789,7.789,0,0,1-1.1.07,4.512,4.512,0,0,1-1.9-.4,4.422,4.422,0,0,1-1.533-1.164,5.67,5.67,0,0,1-1.032-1.872,7.844,7.844,0,0,1-.38-2.539,8.264,8.264,0,0,1,.353-2.522,5.474,5.474,0,0,1,.993-1.872,4.271,4.271,0,0,1,1.528-1.17,4.674,4.674,0,0,1,1.958-.4,5.519,5.519,0,0,1,1.109.1,5.016,5.016,0,0,1,.844.246,3.943,3.943,0,0,1,.64.322q0.274,0.175.485,0.322c0.14,0.1.268,0.179,0.386,0.246a0.7,0.7,0,0,0,.342.1,0.615,0.615,0,0,0,.381-0.105,0.934,0.934,0,0,0,.226-0.246l0.993-1.463a7.365,7.365,0,0,0-2.3-1.591,7.472,7.472,0,0,0-3.095-.608,7.84,7.84,0,0,0-3.2.638,7.307,7.307,0,0,0-2.488,1.784,8.1,8.1,0,0,0-1.616,2.732,10.186,10.186,0,0,0-.574,3.493,10.835,10.835,0,0,0,.535,3.475,7.954,7.954,0,0,0,1.539,2.737,7.037,7.037,0,0,0,2.422,1.791,7.639,7.639,0,0,0,3.193.643,7.816,7.816,0,0,0,3.4-.679,6.479,6.479,0,0,0,2.388-1.953l-1.169-1.346a0.576,0.576,0,0,0-.43-0.2A0.544,0.544,0,0,0,201.073,105.489ZM236.211,95V92.5H226.15v16.918h10.061V106.9h-7.083v-4.785h5.583V99.692h-5.583V95h7.083Zm34.642-2.5v10.284q0,0.339.022,0.737t0.055,0.807L262.568,93a2.44,2.44,0,0,0-.221-0.263,0.793,0.793,0,0,0-.2-0.152,0.75,0.75,0,0,0-.243-0.07,2.61,2.61,0,0,0-.325-0.018h-1.556v16.918h2.615V99.025q0-.655-0.066-1.427l8.329,11.279a1.405,1.405,0,0,0,.458.415,1.273,1.273,0,0,0,.59.123h1.523V92.5h-2.615Zm38.492,0H296.757v2.586h4.81v14.333h2.968V95.082h4.81V92.5Zm33.34,2.5V92.5H332.623v16.918h10.062V106.9H335.6v-4.785h5.582V99.692H335.6V95h7.083Zm26.775,5.546V94.93h1.9a3.666,3.666,0,0,1,2.443.69,2.468,2.468,0,0,1,.8,1.977,3.4,3.4,0,0,1-.2,1.182,2.478,2.478,0,0,1-.6.93,2.778,2.778,0,0,1-1.026.614,4.354,4.354,0,0,1-1.461.222H369.46Zm5.494,2.621a2.856,2.856,0,0,0-.971-0.983,5.375,5.375,0,0,0,1.5-.737,4.717,4.717,0,0,0,1.1-1.088,4.817,4.817,0,0,0,.684-1.38,5.4,5.4,0,0,0,.237-1.615,5.336,5.336,0,0,0-.353-1.972,3.912,3.912,0,0,0-1.1-1.539,5.227,5.227,0,0,0-1.909-1,9.57,9.57,0,0,0-2.785-.357h-4.866v16.918h2.968V102.8h1.269a1.375,1.375,0,0,1,.667.129,1.211,1.211,0,0,1,.414.433l3.354,5.417a1.163,1.163,0,0,0,1.1.632h2.681Z"/>
  <path id="E_left" data-name="E left" class="cls-2" d="M63,81.012V69H87V81.012H63ZM63,51H87V63H63V51Zm0-18.011H87V45H63V32.989Z"/>
  <path id="tforchoic" class="cls-3" d="M99.22,81.5h9.959V40.222h7.38V32.9H91.72v7.32h7.5V81.5Zm20.22,0h9.839V59.661h9.06v-6.9h-9.06V39.682h10.68V32.9H119.44V81.5Zm37.619,0.66c10.68,0,14.34-6,14.34-15.9V48.081c0-9.9-3.66-15.779-14.34-15.779-10.739,0-14.339,5.82-14.339,15.779V66.2C142.72,76.16,146.32,82.16,157.059,82.16Zm0-7.08c-3.84,0-4.26-3.12-4.26-6.42V45.682c0-3.36.54-6.3,4.26-6.3s4.26,2.94,4.26,6.3V68.661C161.319,71.96,160.779,75.08,157.059,75.08ZM176.5,81.5h9.839V59.481h3.6l5.52,22.019H205.6l-6.72-23.7c4.68-2.1,6-6.12,6-12.06,0-9.959-6-12.839-15.78-12.839H176.5V81.5Zm9.839-27.9V39.562h3.42c4.56,0,5.82,2.46,5.82,6.96,0,4.74-1.56,7.08-6.3,7.08h-2.94Zm36.78,28.559c10.62,0,13.62-6.12,13.62-14.579v-4.02h-9.6V68.3c0,3.54-.18,6.78-3.96,6.78-3.48,0-4.26-2.64-4.26-6.78V46.221c0-3.6.3-6.84,4.26-6.84,3.84,0,3.96,3.12,3.96,6.54v4.5h9.6v-4.08c0-8.4-3.18-14.039-13.62-14.039-10.919,0-14.219,6.24-14.219,16.259v17.4C208.9,75.68,212.2,82.16,223.119,82.16Zm18.3-.66h9.9V59.961h8.58V81.5h9.9V32.9h-9.9V52.821h-8.58V32.9h-9.9V81.5Zm47.939,0.66c10.68,0,14.34-6,14.34-15.9V48.081c0-9.9-3.66-15.779-14.34-15.779-10.739,0-14.339,5.82-14.339,15.779V66.2C275.02,76.16,278.62,82.16,289.359,82.16Zm0-7.08c-3.84,0-4.26-3.12-4.26-6.42V45.682c0-3.36.54-6.3,4.26-6.3s4.26,2.94,4.26,6.3V68.661C293.619,71.96,293.079,75.08,289.359,75.08ZM308.92,81.5h9.839V32.9H308.92V81.5Zm29.219,0.66c10.62,0,13.62-6.12,13.62-14.579v-4.02h-9.6V68.3c0,3.54-.18,6.78-3.96,6.78-3.48,0-4.26-2.64-4.26-6.78V46.221c0-3.6.3-6.84,4.26-6.84,3.84,0,3.96,3.12,3.96,6.54v4.5h9.6v-4.08c0-8.4-3.18-14.039-13.62-14.039-10.919,0-14.219,6.24-14.219,16.259v17.4C323.92,75.68,327.22,82.16,338.139,82.16Z"/>
  <path id="E_right" data-name="E right" class="cls-2" d="M356,81.012V69h24V81.012H356ZM356,51h24V63H356V51Zm0-18.011h24V45H356V32.989Z"/>
  <path id="logo" class="cls-3" d="M58.907,83.366H56.449V22.8L43.066,12V52.231L35.65,33.083l-9.9-6.272,0.105-5.989L43.339,9.078,58.907,21.915V83.366Zm-47.443-5"/>
  <path id="logo-2" data-name="logo" class="cls-2" d="M43.066,46.536v5.735L35.65,33.124l-14.706-5.87V83.407l-4.088-2.551L16.847,42.44l-1.912.546V79.893l-3.55-2.077V48.994l-1.912.546V76.7l-3-1.757V33.154l14.269-8.646L37.6,31.242Z"/>
  <path id="logo-3" data-name="logo" class="cls-3" d="M35.419,83.134V64.289l8.194,18.845H35.419Z"/>
</svg>
